<?xml version="1.0" encoding="utf-8"?>
<!-- Generator: Adobe Illustrator 22.1.0, SVG Export Plug-In . SVG Version: 6.00 Build 0)  -->
<svg version="1.1" id="图层_1" xmlns:sketch="http://www.bohemiancoding.com/sketch/ns"
	 xmlns="http://www.w3.org/2000/svg" xmlns:xlink="http://www.w3.org/1999/xlink" x="0px" y="0px" viewBox="0 0 32 32"
	 style="enable-background:new 0 0 32 32;" xml:space="preserve">
<style type="text/css">
	.st0{fill:#157EFB;}
</style>
<path class="st0" d="M25.6,15c-0.6,0-1.1,0.2-1.5,0.5v0c0-1.4-1.1-2.5-2.5-2.5c-0.6,0-1.2,0.2-1.7,0.6c-0.4-1-1.3-1.6-2.3-1.6
	c-0.6,0-1.1,0.2-1.5,0.5v-5C16.1,6.1,15,5,13.6,5c-1.4,0-2.5,1.1-2.5,2.5v8.9c-2-1.8-4.2-3.2-5.6-1.8c-2,2,2.2,5.9,5.4,11.8
	c2.3,4.1,5.5,5.6,8.7,5.6c4.7,0,8.5-3.8,8.5-8.5v-6C28.1,16.1,27,15,25.6,15z M27.1,19.7v3.8c0,0,0,1.1,0,1c0,0.1,0-1,0-1
	c0,3.8-3.1,7.2-7,7.5c-0.2,0-0.7,0-1,0l0,0c0,0,0,0,0,0c0,0-0.1,0-0.1,0l0,0c-3.4-0.2-5.5-2.2-7.1-5C8,19.4,5.2,16.4,6.2,15.3
	c1.1-1.1,3.8,1.3,5.9,3.5V7.5c0-0.8,0.7-1.5,1.5-1.5c0.8,0,1.5,0.7,1.5,1.5V18h1v-3.5c0-0.8,0.7-1.5,1.5-1.5c0.8,0,1.5,0.7,1.5,1.5
	V17h1v-1.5c0-0.8,0.7-1.5,1.5-1.5c0.8,0,1.5,0.7,1.5,1.5V18h1v-0.5c0-0.8,0.7-1.5,1.5-1.5c0.8,0,1.5,0.7,1.5,1.5V19.7z"/>
<g>
	<path class="st0" d="M17.2,10.2c-0.1,0-0.2,0-0.3-0.1c-0.2-0.2-0.3-0.5-0.1-0.7c0.5-0.7,0.7-1.4,0.7-2.3c0-2.2-1.8-3.9-3.9-3.9
		S9.7,5,9.7,7.1c0,0.8,0.2,1.6,0.7,2.3c0.2,0.2,0.1,0.5-0.1,0.7c-0.2,0.2-0.5,0.1-0.7-0.1C9,9.1,8.7,8.1,8.7,7.1
		c0-2.7,2.2-4.9,4.9-4.9c2.7,0,4.9,2.2,4.9,4.9c0,1-0.3,2-0.9,2.8C17.5,10.1,17.4,10.2,17.2,10.2z"/>
</g>
<g>
	<path class="st0" d="M8.3,11.6C7.2,10.3,6.6,8.7,6.6,7c0-3.9,3.2-7,7-7s7,3.2,7,7c0,1.7-0.6,3.3-1.7,4.5c-0.2,0.2-0.5,0.2-0.6,0.1
		c-0.2-0.2-0.2-0.5-0.1-0.6c0.9-1.1,1.4-2.5,1.4-3.9c0-3.4-2.7-6.1-6.1-6.1c-3.4,0-6.1,2.7-6.1,6.1C7.5,8.5,8,9.9,9,11
		c0.2,0.2,0.1,0.5-0.1,0.6C8.6,11.8,8.4,11.7,8.3,11.6z"/>
</g>
</svg>
