<?xml version="1.0" encoding="UTF-8"?>
<svg width="184px" height="133px" viewBox="0 0 184 133" version="1.1" xmlns="http://www.w3.org/2000/svg" xmlns:xlink="http://www.w3.org/1999/xlink">
    <!-- Generator: Sketch 52.6 (67491) - http://www.bohemiancoding.com/sketch -->
    <title>Artwork</title>
    <desc>Created with Sketch.</desc>
    <defs>
        <path d="M73.0339946,16.4018692 L132.078223,16.4018692 C141.973712,16.4018692 146.511792,22.8690395 148.588823,34.6261682 L165.159542,129.392523 L52.0092781,129.392523 C40.1935948,129.392523 29.8636618,121.425328 26.8621551,109.997234 L0.844060894,10.9345794 C0.377898935,4.89557797 4.89557797,3.59136397e-14 10.9345794,6.82359154e-14 L40.1483747,7.63833441e-14 C43.0330638,7.84155539e-14 45.8023141,1.13316664 47.8595242,3.1553729 L52.992423,8.20093458 C58.3391904,13.4567258 65.5365776,16.4018692 73.0339946,16.4018692 Z" id="path-1"></path>
        <filter x="-2.4%" y="-5.4%" width="109.7%" height="108.5%" filterUnits="objectBoundingBox" id="filter-2">
            <feOffset dx="8" dy="-3" in="SourceAlpha" result="shadowOffsetOuter1"></feOffset>
            <feColorMatrix values="0 0 0 0 0.893149447   0 0 0 0 0.893149447   0 0 0 0 0.893149447  0 0 0 1 0" type="matrix" in="shadowOffsetOuter1"></feColorMatrix>
        </filter>
    </defs>
    <g id="2.0" stroke="none" stroke-width="1" fill="none" fill-rule="evenodd">
        <g id="iDoc演示空状态" transform="translate(-868.000000, -297.000000)">
            <g id="Artwork" transform="translate(868.000000, 300.000000)">
                <g id="folder">
                    <path d="M117.69066,36.1419368 L172.302652,36.1419368 C178.377785,36.1419368 183.302652,41.0668045 183.302652,47.1419368 C183.302652,47.8074505 183.242256,48.4715912 183.122206,49.1261878 L168.40177,129.392523 L102.600576,129.392523 C91.5548814,129.392523 82.6005763,120.438218 82.6005763,109.392523 C82.6005763,107.548666 82.8555562,105.713666 83.358271,103.939663 L98.4483551,50.6890765 C100.887318,42.08235 108.745031,36.1419368 117.69066,36.1419368 Z" id="Combined-Shape-Copy" fill="#E0E5EC"></path>
                    <g id="Combined-Shape">
                        <use fill="black" fill-opacity="1" filter="url(#filter-2)" xlink:href="#path-1"></use>
                        <use fill="#FFFFFF" fill-rule="evenodd" xlink:href="#path-1"></use>
                    </g>
                    <g id="Group-2" opacity="0.800000012" transform="translate(51.228506, 59.258649)" fill="#1B3554">
                        <path d="M2.69014085,1.24206802 C4.60175377,0.414120376 6.48680079,0.000146553258 8.3452819,0.000146553258 C10.1641913,0.000146553258 11.9831008,0.396678998 13.8020102,1.18974389 L13.8020079,1.1897492 C15.4523048,1.90929714 16.519265,3.5384715 16.519265,5.33881291 L16.519265,5.33881291 C16.519265,6.20031679 15.8208781,6.89870368 14.9593742,6.89870368 C14.7280755,6.89870368 14.4996714,6.84726632 14.2907016,6.74811636 C12.310505,5.80858399 10.3148213,5.33881291 8.30364592,5.33881291 C6.28256042,5.33881291 4.26147492,5.81322502 2.24038942,6.76204924 L2.2403735,6.76201534 C1.4543605,7.13101912 0.518034404,6.79296634 0.14903063,6.00695334 C0.0508828354,5.79788924 2.50328588e-16,5.56976916 2.22044605e-16,5.33881291 L0,5.33881291 C-2.17951846e-16,3.55910102 1.0570216,1.94938401 2.69013649,1.24205796 Z" id="Rectangle-3-Copy" opacity="0.390738225" transform="translate(8.259632, 3.455783) scale(1, -1) translate(-8.259632, -3.455783) "></path>
                        <path d="M44.2762024,1.24206802 C46.1878153,0.414120376 48.0728624,0.000146553258 49.9313435,0.000146553258 C51.7502529,0.000146553258 53.5691624,0.396678998 55.3880718,1.18974389 L55.3880695,1.1897492 C57.0383664,1.90929714 58.1053265,3.5384715 58.1053265,5.33881291 L58.1053265,5.33881291 C58.1053265,6.20031679 57.4069396,6.89870368 56.5454358,6.89870368 C56.3141371,6.89870368 56.085733,6.84726632 55.8767632,6.74811636 C53.8965666,5.80858399 51.9008829,5.33881291 49.8897075,5.33881291 C47.868622,5.33881291 45.8475365,5.81322502 43.826451,6.76204924 L43.8264351,6.76201534 C43.0404221,7.13101912 42.104096,6.79296634 41.7350922,6.00695334 C41.6369444,5.79788924 41.5860616,5.56976916 41.5860616,5.33881291 L41.5860616,5.33881291 C41.5860616,3.55910102 42.6430832,1.94938401 44.2761981,1.24205796 Z" id="Rectangle-3-Copy-2" opacity="0.390738225" transform="translate(49.845694, 3.455783) scale(1, -1) translate(-49.845694, -3.455783) "></path>
                        <path d="M29.9638782,30.8519861 C37.601057,30.8519861 43.7922137,25.1638428 43.7922137,15.429333 C29.9638782,15.3719698 26.9893193,15.710875 16.1355427,15.429333 C16.1355427,25.1638428 22.3266994,30.8519861 29.9638782,30.8519861 Z" id="Oval-10" opacity="0.390738225"></path>
                    </g>
                </g>
            </g>
        </g>
    </g>
</svg>