<?xml version="1.0" standalone="no"?>
<!DOCTYPE svg PUBLIC "-//W3C//DTD SVG 1.1//EN" "http://www.w3.org/Graphics/SVG/1.1/DTD/svg11.dtd" >
<!--
2013-9-30: Created.
-->
<svg>
<metadata>
Created by iconfont
</metadata>
<defs>

<font id="iconfont" horiz-adv-x="1024" >
  <font-face
    font-family="iconfont"
    font-weight="500"
    font-stretch="normal"
    units-per-em="1024"
    ascent="896"
    descent="-128"
  />
    <missing-glyph />
    
    <glyph glyph-name="_broad_back" unicode="&#59606;" d="M683.52 394.24c-2.56 12.8-7.68 23.04-15.36 33.28l-225.28 227.84c-23.04 23.04-58.88 23.04-84.48 0s-23.04-58.88 0-84.48l186.88-186.88-186.88-189.44c-23.04-23.04-23.04-58.88 0-84.48 12.8-12.8 25.6-17.92 40.96-17.92s28.16 5.12 40.96 17.92l227.84 227.84c15.36 15.36 17.92 35.84 15.36 56.32z"  horiz-adv-x="1024" />

    
    <glyph glyph-name="_interaction_back" unicode="&#59608;" d="M360.704 512H576a192 192 0 1 0 0-384 64 64 0 0 1 0-128A320 320 0 0 1 576 640H365.248l24.256 24.256a64 64 0 0 1-90.496 90.496L163.2 619.008a64 64 0 0 1 0-90.56l135.808-135.744A64 64 0 0 1 389.504 483.2L360.704 512z"  horiz-adv-x="1034" />

    
    <glyph glyph-name="_index_copy" unicode="&#59609;" d="M832 64V512a64 64 0 0 0 128 0v-512a64 64 0 0 0-64-64H384a64 64 0 0 0 0 128h448zM128 832h512a64 64 0 0 0 64-64v-512a64 64 0 0 0-64-64H128a64 64 0 0 0-64 64V768a64 64 0 0 0 64 64z m64-128v-384h384V704H192z"  horiz-adv-x="1024" />

    
    <glyph glyph-name="_broad_home" unicode="&#59610;" d="M832 357.504V0a63.808 63.808 0 0 0-64-64H256a63.808 63.808 0 0 0-64 64V357.63199999999995l-7.808-7.872a63.936 63.936 0 0 0-90.432-0.128v0.064a63.232 63.232 0 0 0 0.512 89.984l375.04 366.144a60.224 60.224 0 0 0 48.128 16.896 61.184 61.184 0 0 0 37.632-17.28l374.656-365.76a63.36 63.36 0 0 0 0.576-89.984 64 64 0 0 0-90.56 0L832 357.504z"  horiz-adv-x="1024" />

    
    <glyph glyph-name="_tag_uparrow" unicode="&#59611;" d="M512 564.992c16.384 0 32.768-6.208 45.248-18.688l135.744-135.808A64 64 0 0 0 602.496 320L512 410.496 421.504 320a64 64 0 1 0-90.496 90.496l135.68 135.808A63.808 63.808 0 0 0 512 564.992z"  horiz-adv-x="1024" />

    
    <glyph glyph-name="_demo_delete" unicode="&#59612;" d="M448 579.5840000000001H318.72v-512H448v512z m128 0v-512h126.72v512H576z m-385.28 0H128a64 64 0 1 0 0 128h192v64a64 64 0 0 0 64 64h256a64 64 0 0 0 64-64v-64h192a64 64 0 0 0 0-128h-65.28v-576a64 64 0 0 0-64-64h-512a64 64 0 0 0-64 64v576z"  horiz-adv-x="1024" />

    
    <glyph glyph-name="_demo_close" unicode="&#59613;" d="M602.496 384l226.304-226.304a64 64 0 0 0-90.496-90.496L512 293.504 285.696 67.20000000000005a64 64 0 1 0-90.496 90.496L421.504 384 195.2 610.304A64 64 0 0 0 285.696 700.8L512 474.496l226.304 226.304a64 64 0 0 0 90.496-90.496L602.496 384z"  horiz-adv-x="1024" />

    
    <glyph glyph-name="_tag_rightarrow" unicode="&#59614;" d="M692.992 384a63.808 63.808 0 0 0-18.688-45.248l-135.808-135.744A64 64 0 0 0 448 293.504L538.496 384 448 474.496a64 64 0 1 0 90.496 90.496l135.808-135.68a63.808 63.808 0 0 0 18.688-45.312z"  horiz-adv-x="1024" />

    
    <glyph glyph-name="_demo_quit" unicode="&#59615;" d="M192 0h448v128.128a64 64 0 1 0 128 0v-136.128C768-73.34400000000005 716.928-128 651.648-128H180.352C115.072-128 64-73.34400000000005 64-8V776C64 841.344 115.072 896 180.352 896h471.296C716.928 896 768 841.344 768 776v-138.24a64 64 0 0 0-128 0V768H192v-768z m581.76 448a64 64 0 0 0 103.488 71.744l90.496-90.496a63.808 63.808 0 0 0 0-90.496l-90.496-90.496A64 64 0 0 0 773.76 320H448a64 64 0 1 0 0 128h325.76z"  horiz-adv-x="1024" />

    
    <glyph glyph-name="_doc_link" unicode="&#59616;" d="M421.504 112.44799999999998A64 64 0 0 0 512 21.951999999999998 256 256 0 1 0 149.952 384l135.744 135.744a256 256 0 0 0 362.048 0 64 64 0 1 0-90.496-90.496 128 128 0 0 1-180.992 0L240.448 293.504a128 128 0 1 1 181.056-181.056z m180.992 543.104A64 64 0 1 0 512 746.048 256 256 0 1 0 874.048 384l-135.744-135.744a256 256 0 0 0-362.048 0 64 64 0 0 0 90.496 90.496 128 128 0 0 1 180.992 0l135.808 135.744a128 128 0 1 1-181.056 181.056z"  horiz-adv-x="1024" />

    
    <glyph glyph-name="_layertree_pic" unicode="&#59617;" d="M929.28 737.28H94.72C43.52 737.28 0 704 0 663.04v-650.24c0-40.96 43.52-74.24 94.72-74.24h834.56c51.2 0 94.72 33.28 94.72 74.24V663.04c0 40.96-43.52 74.24-94.72 74.24zM972.8 12.8c0-17.92-20.48-33.28-43.52-33.28H94.72c-23.04 0-43.52 15.36-43.52 33.28V663.04c0 17.92 20.48 33.28 43.52 33.28h834.56c23.04 0 43.52-15.36 43.52-33.28v-650.24zM478.72 250.88c10.24-10.24 25.6-7.68 35.84 2.56 10.24 10.24 7.68 25.6-2.56 35.84l-61.44 51.2c-17.92 15.36-40.96 15.36-58.88 2.56l-220.16-161.28c-10.24-7.68-12.8-25.6-5.12-35.84 5.12-7.68 12.8-10.24 20.48-10.24 5.12 0 10.24 2.56 15.36 2.56l217.6 161.28 58.88-48.64zM739.84 314.88c-15.36 15.36-40.96 17.92-61.44 5.12l-309.76-220.16c-10.24-7.68-12.8-23.04-5.12-35.84 5.12-7.68 12.8-10.24 20.48-10.24 5.12 0 10.24 0 12.8 2.56l307.2 220.16 130.56-140.8c10.24-10.24 25.6-10.24 35.84 0 12.8 10.24 12.8 25.6 2.56 35.84l-133.12 143.36zM266.24 384c66.56 0 117.76 53.76 117.76 117.76s-53.76 117.76-117.76 117.76-117.76-53.76-117.76-117.76 51.2-117.76 117.76-117.76z m0 184.32c38.4 0 66.56-30.72 66.56-66.56 0-38.4-30.72-66.56-66.56-66.56s-66.56 30.72-66.56 66.56c0 35.84 28.16 66.56 66.56 66.56z"  horiz-adv-x="1024" />

    
    <glyph glyph-name="_layertree_cutshap" unicode="&#59618;" d="M716.8 46.08c97.28 107.52 163.84 253.44 163.84 253.44l-40.96 35.84 171.52 186.88c7.68 7.68 7.68 20.48-2.56 28.16l-12.8 12.8c-7.68 7.68-20.48 7.68-28.16-2.56L793.6 371.2 368.64-107.52s238.08 33.28 348.16 153.6zM1024 801.28c0 51.2-40.96 94.72-94.72 94.72-33.28 0-61.44-17.92-79.36-43.52H174.08C156.16 878.08 128 893.44 94.72 893.44 43.52 893.44 0 852.48 0 801.28 0 768 17.92 739.84 46.08 721.92V46.08C17.92 30.72 0 0 0-33.28c0-51.2 40.96-94.72 94.72-94.72 33.28 0 61.44 15.36 76.8 40.96h143.36c15.36 0 25.6 10.24 25.6 25.6s-10.24 25.6-25.6 25.6h-128v2.56c0 51.2-40.96 92.16-92.16 92.16V706.56c51.2 0 89.6 40.96 92.16 92.16h647.68c0-51.2 43.52-92.16 92.16-92.16v-87.04c0-15.36 10.24-25.6 25.6-25.6s25.6 10.24 25.6 25.6v102.4C1006.08 739.84 1024 768 1024 801.28zM138.24-33.28c0-23.04-17.92-43.52-43.52-43.52-23.04 0-43.52 17.92-43.52 43.52 0 23.04 17.92 43.52 43.52 43.52 23.04 0 43.52-20.48 43.52-43.52zM94.72 757.76C71.68 757.76 51.2 778.24 51.2 801.28 51.2 824.32 69.12 844.8 94.72 844.8c23.04 0 43.52-17.92 43.52-43.52 0-23.04-20.48-43.52-43.52-43.52z m791.04 43.52c0 23.04 17.92 43.52 43.52 43.52 23.04 0 43.52-17.92 43.52-43.52 0-23.04-17.92-43.52-43.52-43.52-23.04 0-43.52 20.48-43.52 43.52z"  horiz-adv-x="1024" />

    
    <glyph glyph-name="_demo_leftarrow" unicode="&#59619;" d="M293.504 448l71.744 71.744a64 64 0 1 1-90.496 90.56L93.696 429.248a63.808 63.808 0 0 1 0-90.496l181.056-181.056a64 64 0 1 1 90.496 90.56L293.504 320H832a64 64 0 0 1 0 128H293.504z"  horiz-adv-x="1024" />

    
    <glyph glyph-name="_tag_downarrow" unicode="&#59620;" d="M512 203.00800000000004a63.808 63.808 0 0 0-45.248 18.688L331.008 357.504A64 64 0 0 0 421.504 448L512 357.504 602.496 448a64 64 0 1 0 90.496-90.496l-135.68-135.808a63.808 63.808 0 0 0-45.312-18.688z"  horiz-adv-x="1024" />

    
    <glyph glyph-name="_demo_control" unicode="&#59621;" d="M896 640H128a64 64 0 0 0 0 128h768a64 64 0 0 0 0-128zM896 0H128a64 64 0 0 0 0 128h768a64 64 0 0 0 0-128zM896 320H128a64 64 0 0 0 0 128h768a64 64 0 0 0 0-128z"  horiz-adv-x="1024" />

    
    <glyph glyph-name="_layertree_cutpic" unicode="&#59622;" d="M412.16 61.44H117.76c-64 0-115.2 51.2-115.2 115.2V757.76C2.56 821.76 53.76 872.96 117.76 872.96h788.48c64 0 115.2-51.2 115.2-115.2V614.4c0-15.36-10.24-25.6-25.6-25.6s-25.6 10.24-25.6 25.6V757.76c0 35.84-28.16 64-64 64H117.76C81.92 821.76 53.76 793.6 53.76 757.76v-581.12c0-35.84 28.16-64 64-64h294.4c15.36 0 25.6-10.24 25.6-25.6s-10.24-25.6-25.6-25.6zM291.84 704c48.64 0 87.04-38.4 87.04-87.04s-38.4-87.04-87.04-87.04S204.8 565.76 204.8 614.4s38.4 89.6 87.04 89.6m0 51.2C215.04 755.2 153.6 691.2 153.6 614.4s61.44-138.24 138.24-138.24 138.24 61.44 138.24 138.24-61.44 140.8-138.24 140.8zM284.16 220.16c-7.68 0-15.36 2.56-20.48 10.24-7.68 10.24-5.12 28.16 5.12 35.84l207.36 153.6c17.92 12.8 40.96 12.8 56.32-2.56l58.88-48.64c10.24-10.24 12.8-25.6 2.56-35.84-10.24-10.24-25.6-12.8-35.84-2.56l-53.76 46.08-204.8-151.04c-5.12-5.12-10.24-5.12-15.36-5.12zM714.24 25.6c97.28 107.52 163.84 253.44 163.84 253.44l-40.96 35.84 171.52 186.88c7.68 7.68 7.68 20.48-2.56 28.16l-12.8 12.8c-7.68 7.68-20.48 7.68-28.16-2.56L793.6 350.72 366.08-128s238.08 33.28 348.16 153.6z"  horiz-adv-x="1024" />

    
    <glyph glyph-name="_layertree_cutgrou" unicode="&#59623;" d="M719.36 40.96c97.28 107.52 163.84 253.44 163.84 253.44L842.24 332.8l171.52 186.88c7.68 7.68 7.68 20.48-2.56 28.16l-12.8 12.8c-7.68 7.68-20.48 7.68-28.16-2.56l-171.52-189.44-424.96-478.72s235.52 30.72 345.6 151.04zM460.8 48.64H148.48c-81.92 0-145.92 66.56-145.92 145.92V750.08C0 829.44 66.56 896 148.48 896h220.16c17.92 0 33.28-10.24 38.4-25.6l89.6-148.48h302.08c79.36-2.56 140.8-76.8 148.48-145.92 2.56-12.8-7.68-25.6-23.04-28.16-12.8-2.56-25.6 7.68-28.16 23.04-5.12 46.08-48.64 99.84-99.84 99.84h-307.2c-15.36 0-28.16 7.68-35.84 23.04L360.96 844.8H148.48C94.72 844.8 51.2 801.28 51.2 750.08v-555.52c0-53.76 43.52-94.72 94.72-94.72H460.8c15.36 0 25.6-10.24 25.6-25.6s-10.24-25.6-25.6-25.6z m35.84 670.72z m-135.68 128z"  horiz-adv-x="1024" />

    
    <glyph glyph-name="_index_set" unicode="&#59624;" d="M865.28 304.64c15.36 66.56 66.56 112.64 128 122.88-5.12 51.2-15.36 97.28-33.28 140.8-58.88-15.36-125.44 2.56-166.4 53.76-38.4 48.64-43.52 117.76-17.92 171.52-40.96 25.6-84.48 46.08-128 61.44-25.6-53.76-79.36-89.6-143.36-89.6-61.44 0-112.64 33.28-140.8 81.92-46.08-15.36-89.6-38.4-128-66.56 20.48-51.2 12.8-112.64-25.6-158.72-35.84-43.52-92.16-64-143.36-58.88C48.64 517.12 38.4 471.04 30.72 419.84c51.2-17.92 89.6-58.88 102.4-115.2 12.8-56.32-5.12-112.64-43.52-151.04 25.6-43.52 53.76-81.92 89.6-115.2 46.08 30.72 104.96 35.84 158.72 10.24 53.76-25.6 87.04-79.36 89.6-135.68 28.16-5.12 56.32-7.68 84.48-7.68 20.48 0 40.96 0 58.88 2.56 0 58.88 33.28 112.64 89.6 140.8 58.88 28.16 128 17.92 174.08-20.48 35.84 30.72 66.56 69.12 92.16 110.08-51.2 38.4-76.8 102.4-61.44 166.4z m-358.4-183.04c-113.28 0-214.016 74.88-243.392 179.008a240.576 240.576 0 0 0-12.608 79.104c0 141.44 113.28 253.888 256 253.888s256-112.384 256-253.888v-4.224c0-141.44-113.28-253.888-256-253.888z"  horiz-adv-x="1024" />

    
    <glyph glyph-name="_demo_share" unicode="&#59626;" d="M311.773606 233.820609a191.910282 191.910282 0 1 0 21.749832 279.933131c2.430864 1.983073 5.117608 3.838206 7.996262 5.501428l239.951822 138.559224a191.910282 191.910282 0 1 0 70.495044-107.021967L405.489794 408.458965a63.842154 63.842154 0 0 0-22.133653-7.804351 194.469086 194.469086 0 0 0-3.838206-58.340726l250.570858-144.636382a191.910282 191.910282 0 1 0-53.415028-116.873362l-262.917086 151.737063a65.121556 65.121556 0 0 0-2.047043 1.279402zM767.880376 639.774825a63.970094 63.970094 0 1 1 0 127.940188 63.970094 63.970094 0 0 1 0-127.940188zM192.14953 319.924355a63.970094 63.970094 0 1 1 0 127.940188 63.970094 63.970094 0 0 1 0-127.940188z m575.730846-319.85047a63.970094 63.970094 0 1 1 0 127.940188 63.970094 63.970094 0 0 1 0-127.940188z"  horiz-adv-x="1024" />

    
    <glyph glyph-name="_tag_leftarrow" unicode="&#59627;" d="M331.008 384c0-16.384 6.208-32.768 18.688-45.248l135.808-135.744A64 64 0 0 1 576 293.504L485.504 384 576 474.496a64 64 0 1 1-90.496 90.496l-135.808-135.68A63.808 63.808 0 0 1 331.008 384z"  horiz-adv-x="1024" />

    
    <glyph glyph-name="_demo_code" unicode="&#59628;" d="M768 64h128a64 64 0 0 0 0-128h-256a64 64 0 0 0-64 64v64a64 64 0 0 0 64 64h64a64 64 0 0 0 64-64zM448 768v-256a64 64 0 0 0-64-64H128a64 64 0 0 0-64 64V768a64 64 0 0 0 64 64h256a64 64 0 0 0 64-64zM320 704H192v-128h128V704z m640 64v-256a64 64 0 0 0-64-64h-256a64 64 0 0 0-64 64V768a64 64 0 0 0 64 64h256a64 64 0 0 0 64-64z m-128-64h-128v-128h128V704z m-384-448v-256a64 64 0 0 0-64-64H128a64 64 0 0 0-64 64v256a64 64 0 0 0 64 64h256a64 64 0 0 0 64-64z m-128-64H192v-128h128v128z m320 128h64a64 64 0 0 0 0-128h-64a64 64 0 0 0 0 128z m256 0a64 64 0 0 0 64-64v-64a64 64 0 0 0-128 0v64a64 64 0 0 0 64 64z"  horiz-adv-x="1024" />

    
    <glyph glyph-name="_layertree_start" unicode="&#59629;" d="M768 640H256C115.2 640 0 524.8 0 384s115.2-256 256-256h512c140.8 0 256 115.2 256 256s-115.2 256-256 256z m0-448c-108.8 0-192 83.2-192 192s83.2 192 192 192 192-83.2 192-192-83.2-192-192-192z"  horiz-adv-x="1024" />

    
    <glyph glyph-name="_demo_rightarrow" unicode="&#59630;" d="M730.496 448l-71.744 71.744a64 64 0 1 0 90.496 90.56l181.056-181.056a63.808 63.808 0 0 0 0-90.496l-181.056-181.056a64 64 0 1 0-90.496 90.56L730.496 320H192a64 64 0 0 0 0 128h538.496z"  horiz-adv-x="1024" />

    
    <glyph glyph-name="_demo_home" unicode="&#59631;" d="M711.424 477.952L511.424 677.952 312.32 478.336C317.248 469.312 320 459.008 320 448v-384h384V448c0 10.88 2.688 21.056 7.424 29.952zM832 357.504V0a63.808 63.808 0 0 0-64-64H256a63.808 63.808 0 0 0-64 64V357.63199999999995l-7.808-7.872a63.936 63.936 0 0 0-90.496 0 63.232 63.232 0 0 0 0.576 89.92l375.04 366.144a60.224 60.224 0 0 0 48.128 16.896 61.184 61.184 0 0 0 37.632-17.28l374.656-365.76a63.36 63.36 0 0 0 0.576-89.984 64 64 0 0 0-90.56 0L832 357.504z"  horiz-adv-x="1039" />

    
    <glyph glyph-name="_board_search" unicode="&#59632;" d="M679.424 94.08000000000004a416 416 0 1 0 85.568 95.488l180.16-180.224a64 64 0 0 0-90.496-90.496l-175.232 175.168zM416 128a288 288 0 1 1 0 576 288 288 0 0 1 0-576z"  horiz-adv-x="1024" />

    
    <glyph glyph-name="_layertree" unicode="&#59634;" d="M512.704 71.29600000000005l398.72 239.232a62.912 62.912 0 0 0 86.848-22.528l0.512-0.896a64 64 0 0 0-22.464-86.912l-424.448-254.72a62.976 62.976 0 0 0-42.112-8.192 61.696 61.696 0 0 0-38.4 9.088L63.488 199.87199999999996a64 64 0 0 0-21.632 86.4L42.88 288a61.952 61.952 0 0 0 86.4 21.632l383.424-238.336zM544 870.272l414.784-238.784a64 64 0 0 0 0-110.976L543.936 281.72799999999995a64 64 0 0 0-63.872 0L65.28 520.512a64 64 0 0 0 0 110.976L480.064 870.272a64 64 0 0 0 63.872 0zM512 740.992L225.472 576 512 411.072 798.528 576 512 740.928z"  horiz-adv-x="1024" />

    
    <glyph glyph-name="_layertree_shape" unicode="&#59637;" d="M980.48 40.96V716.8c43.52 30.72 53.76 87.04 23.04 130.56-30.72 40.96-87.04 51.2-130.56 23.04-10.24-7.68-17.92-15.36-25.6-25.6H174.08C148.48 888.32 89.6 903.68 46.08 878.08S-12.8 793.6 12.8 750.08c7.68-12.8 20.48-25.6 33.28-33.28v-673.28c-43.52-28.16-56.32-84.48-28.16-128 28.16-43.52 84.48-56.32 128-28.16 10.24 7.68 20.48 15.36 25.6 25.6h680.96c30.72-43.52 87.04-53.76 130.56-23.04 43.52 30.72 53.76 87.04 23.04 130.56-7.68 5.12-15.36 12.8-25.6 20.48zM926.72 837.12c23.04 0 40.96-17.92 40.96-43.52s-17.92-40.96-43.52-40.96c-23.04 0-40.96 17.92-40.96 40.96 2.56 23.04 20.48 40.96 43.52 43.52z m-829.44 0c23.04 0 40.96-17.92 40.96-40.96s-17.92-43.52-43.52-43.52S53.76 770.56 53.76 793.6s17.92 40.96 43.52 43.52z m0-919.04c-25.6 0-43.52 20.48-43.52 43.52s17.92 40.96 43.52 40.96 40.96-17.92 40.96-40.96c0-23.04-17.92-40.96-40.96-43.52z m92.16 43.52c0 51.2-40.96 94.72-92.16 94.72V701.44c51.2 0 89.6 40.96 92.16 92.16h645.12c0-51.2 43.52-92.16 94.72-92.16v-645.12c-51.2 0-92.16-40.96-92.16-94.72v-2.56l-647.68 2.56z m739.84-40.96c-23.04 0-40.96 20.48-40.96 43.52s20.48 40.96 43.52 40.96 40.96-20.48 40.96-40.96c0-25.6-17.92-43.52-43.52-43.52z"  horiz-adv-x="1024" />

    
    <glyph glyph-name="_manage_new" unicode="&#59638;" d="M576 448h320a64 64 0 0 0 0-128H576v-320a64 64 0 0 0-128 0V320H128a64 64 0 1 0 0 128h320V768a64 64 0 1 0 128 0v-320z"  horiz-adv-x="1024" />

    
    <glyph glyph-name="_manage_addpeople" unicode="&#59639;" d="M559.872 358.4c19.328-7.04 38.144-15.68 56.32-25.6a64 64 0 0 0-61.696-112.192A288 288 0 0 1 128-32a64 64 0 0 0-128 0c0 179.2 113.28 331.904 272.128 390.4a288 288 0 1 0 287.744 0zM416 448a160 160 0 1 1 0 320 160 160 0 0 1 0-320z m352-320v64a64 64 0 0 0 128 0v-64h64a64 64 0 0 0 0-128h-64v-64a64 64 0 0 0-128 0v64h-64a64 64 0 0 0 0 128h64z"  horiz-adv-x="1024" />

    
    <glyph glyph-name="_logo" unicode="&#59640;" d="M809.910857 208.34742900000003a49.334857 49.334857 0 0 1-78.921143 39.497142 431.542857 431.542857 0 0 0-437.357714 0.438858 49.334857 49.334857 0 1 1-54.528-82.176l-0.219429-0.402286a538.148571 538.148571 0 0 1 547.766858 0.512h-0.256a49.298286 49.298286 0 0 1 23.515428 42.130286zM1023.963429 13.238857000000053V763.794286A63.195429 63.195429 0 0 1 962.889143 822.857143a61.805714 61.805714 0 0 1-21.357714-3.657143L511.012571 657.7371430000001l-426.788571 160.914286a61.915429 61.915429 0 0 1-84.114286-57.746286v-749.385143h0.182857a51.638857 51.638857 0 0 1 103.277715 0.804571V700.781714l384.548571-145.188571a49.846857 49.846857 0 0 1 5.851429-2.194286l0.877714-0.329143h0.292571a50.066286 50.066286 0 0 1 26.989715 0h0.329143a49.846857 49.846857 0 0 1 5.778285 2.048l392.155429 139.337143v-682.934857h0.219428a51.638857 51.638857 0 0 1 103.277715 0.804571c0.109714 0.292571 0.073143 0.621714 0.073143 0.914286z"  horiz-adv-x="1024" />

    
    <glyph glyph-name="_tree_group" unicode="&#59644;" d="M448 704v-64h512a64 64 0 0 0 64-64v-576a64 64 0 0 0-64-64H64a64 64 0 0 0-64 64V704a64 64 0 0 0 64 64h320a64 64 0 0 0 64-64z"  horiz-adv-x="1024" />

    
    <glyph glyph-name="_nav_download" unicode="&#59645;" d="M832 0v192a64 64 0 0 0 128 0v-256a64 64 0 0 0-64-64H128a63.808 63.808 0 0 0-64 64v256a64 64 0 0 0 128 0v-192h640zM576 293.504l71.744 71.744a64 64 0 1 0 90.56-90.496l-181.056-181.056a63.808 63.808 0 0 0-90.496 0L285.696 274.75199999999995A64 64 0 1 0 376.32 365.24800000000005L448 293.504V768a64 64 0 0 0 128 0v-474.496z"  horiz-adv-x="1024" />

    
    <glyph glyph-name="_tree_flag" unicode="&#59647;" d="M256 768h640a64 64 0 0 0 64-64l-64-224 64-224a64 64 0 0 0-64-64H256v-256a64 64 0 0 0-128 0V768a64 64 0 1 0 128 0z m0-448h576l-64 160L832 640H256v-320z"  horiz-adv-x="1024" />

    
    <glyph glyph-name="_tree_leftback" unicode="&#59648;" d="M304.448 384c0-16.384 6.272-32.768 18.752-45.248l271.552-271.552a64 64 0 0 1 90.496 90.496L459.008 384l226.24 226.304A64 64 0 1 1 594.752 700.8L323.2 429.248A63.808 63.808 0 0 1 304.448 384z"  horiz-adv-x="1024" />

    
    <glyph glyph-name="_zoomin" unicode="&#59650;" d="M512-64A448 448 0 1 0 512 832a448 448 0 0 0 0-896z m64 512V576a64 64 0 1 1-128 0v-128H320a64 64 0 1 1 0-128h128v-128a64 64 0 0 1 128 0V320h128a64 64 0 0 1 0 128H576z"  horiz-adv-x="1024" />

    
    <glyph glyph-name="_tree_phone" unicode="&#59651;" d="M128 256a64 64 0 0 1 64 64V448a64 64 0 0 1-64 64V576h768v-384H128v64zM0 576v-384a128 128 0 0 1 128-128h768a128 128 0 0 1 128 128V576a128 128 0 0 1-128 128H128a128 128 0 0 1-128-128z"  horiz-adv-x="1024" />

    
    <glyph glyph-name="_tree" unicode="&#59652;" d="M192 128h64v64a64 64 0 0 0 64 64h640a64 64 0 0 0 64-64v-256a64 64 0 0 0-64-64H320a64 64 0 0 0-64 64v64H128a64 64 0 0 0-64 64V768a64 64 0 1 0 0 128h64a63.808 63.808 0 0 0 64-64v-256h64V640a64 64 0 0 0 64 64h640a64 64 0 0 0 64-64v-256a64 64 0 0 0-64-64H320a64 64 0 0 0-64 64V448H192v-320z m704 448H384v-128h512V576z m0-448H384v-128h512v128z"  horiz-adv-x="1026" />

    
    <glyph glyph-name="_preview_back" unicode="&#59658;" d="M304.448 384c0-16.384 6.272-32.768 18.752-45.248l271.552-271.552a64 64 0 0 1 90.496 90.496L459.008 384l226.24 226.304A64 64 0 1 1 594.752 700.8L323.2 429.248A63.808 63.808 0 0 1 304.448 384z"  horiz-adv-x="1024" />

    
    <glyph glyph-name="_ps_clipping" unicode="&#59659;" d="M998.4-20.992h-36.096V785.92H998.4a25.6 25.6 0 0 1 0 51.2h-36.096V870.4a25.6 25.6 0 0 1-51.2 0v-33.28H119.296V870.4a25.6 25.6 0 0 1-51.2 0v-33.28H25.6a25.6 25.6 0 0 1 0-51.2h42.496v-806.912H25.6a25.6 25.6 0 0 1 0-51.2h42.496V-102.4a25.6 25.6 0 0 1 51.2 0v30.208h791.808V-102.4a25.6 25.6 0 0 1 51.2 0v30.208H998.4a25.6 25.6 0 0 1 0 51.2z m-879.104 0V785.92h791.808v-806.912zM340.736 488.192a123.392 123.392 0 1 1-123.648 123.648 123.648 123.648 0 0 1 123.648-123.648z m0 195.84a72.192 72.192 0 1 0-72.192-72.192 72.448 72.448 0 0 0 72.192 72.192zM470.528 276.736a25.6 25.6 0 0 1 32.512 39.424l-58.112 47.872a46.592 46.592 0 0 1-57.344 1.536l-210.176-153.6a25.6 25.6 0 0 1 30.464-41.216l207.36 153.6zM849.92 199.168l-128 137.216a46.592 46.592 0 0 1-60.928 6.144l-295.68-211.2a25.6 25.6 0 0 1 29.696-41.728l292.608 208.64 124.928-134.144a25.6 25.6 0 0 1 37.376 34.816z"  horiz-adv-x="1024" />

    
    <glyph glyph-name="_tree_rightback" unicode="&#59660;" d="M719.552 384a63.808 63.808 0 0 0-18.752-45.248L429.248 67.20000000000005a64 64 0 0 0-90.496 90.496L564.992 384 338.752 610.304A64 64 0 1 0 429.248 700.8l271.552-271.552a63.808 63.808 0 0 0 18.752-45.248z"  horiz-adv-x="1024" />

    
    <glyph glyph-name="_ps_more" unicode="&#59661;" d="M128 384m-128 0a128 128 0 1 1 256 0 128 128 0 1 1-256 0ZM512 384m-128 0a128 128 0 1 1 256 0 128 128 0 1 1-256 0ZM896 384m-128 0a128 128 0 1 1 256 0 128 128 0 1 1-256 0Z"  horiz-adv-x="1026" />

    
    <glyph glyph-name="_tree_index" unicode="&#59662;" d="M896 320h39.232a64 64 0 0 0 60.672-84.224l-85.312-256a64 64 0 0 0-60.736-43.776H64a64 64 0 0 0-64 64V704a64 64 0 0 0 64 64h320a64 64 0 0 0 64-64v-64h384a64 64 0 0 0 64-64v-256z m-64 0V576H384V704H64v-576l49.408 148.224A64 64 0 0 0 174.144 320H832z"  horiz-adv-x="1024" />

    
    <glyph glyph-name="_postil_dialog" unicode="&#59664;" d="M167.296 97.79200000000003A448 448 0 1 0 262.4 11.967999999999961a65.024 65.024 0 0 0-2.432-2.56l-45.248-45.312a64 64 0 1 0-90.56 90.56l43.2 43.136zM512 64A320 320 0 1 1 512 704a320 320 0 0 1 0-640zM384 320a64 64 0 1 0 0 128 64 64 0 0 0 0-128z m256 0a64 64 0 1 0 0 128 64 64 0 0 0 0-128z"  horiz-adv-x="1024" />

    
    <glyph glyph-name="_nav_play" unicode="&#59665;" d="M256 656v-542.72l472.32 270.912L256 656z m-31.04 166.848l660.864-381.504a63.616 63.616 0 0 0 29.632-31.04 63.616 63.616 0 0 0 0-52.48v-0.128c-0.896-1.92-1.856-3.84-2.944-5.696v-0.064a64.64 64.64 0 0 0-25.728-24.704l-661.824-382.08a64 64 0 0 0-95.744 42.368 63.808 63.808 0 0 0-1.216 23.488V760.96a63.744 63.744 0 0 0 1.408 20.48 64 64 0 0 0 95.552 41.408z"  horiz-adv-x="1024" />

    
    <glyph glyph-name="_zoomout" unicode="&#59666;" d="M512-64A448 448 0 1 0 512 832a448 448 0 0 0 0-896zM320 448a64 64 0 1 1 0-128h384a64 64 0 0 1 0 128H320z"  horiz-adv-x="1024" />

    
    <glyph glyph-name="_nav_people" unicode="&#59667;" d="M559.872 358.4c19.328-7.04 38.144-15.68 56.32-25.6a64 64 0 0 0-61.696-112.192A288 288 0 0 1 128-32a64 64 0 0 0-128 0c0 179.2 113.28 331.904 272.128 390.4a288 288 0 1 0 287.744 0zM416 448a160 160 0 1 1 0 320 160 160 0 0 1 0-320z m224-256h128v-128h-128v128z m192 0h192v-128h-192v128z m-192-192h128v-128h-128v128z m192 0h192v-128h-192v128z"  horiz-adv-x="1024" />

    
    <glyph glyph-name="_zoomin_pressed" unicode="&#59668;" d="M512-64A448 448 0 1 0 512 832a448 448 0 0 0 0-896z m64 512V576a64 64 0 1 1-128 0v-128H320a64 64 0 1 1 0-128h128v-128a64 64 0 0 1 128 0V320h128a64 64 0 0 1 0 128H576z"  horiz-adv-x="1024" />

    
    <glyph glyph-name="_ps_uploadpic" unicode="&#59669;" d="M990.72 145.92h-174.08v174.08c0 17.92-10.24 30.72-25.6 30.72s-25.6-12.8-25.6-30.72v-174.08h-174.08c-17.92 0-30.72-10.24-30.72-25.6s12.8-25.6 30.72-25.6h174.08v-174.08c0-17.92 10.24-30.72 25.6-30.72s25.6 12.8 25.6 30.72v174.08h174.08c15.36 0 30.72 10.24 30.72 25.6s-12.8 25.6-30.72 25.6zM412.16 66.56H117.76c-64 0-115.2 51.2-115.2 115.2V762.88C2.56 826.88 53.76 878.08 117.76 878.08h788.48c64 0 115.2-51.2 115.2-115.2v-348.16c0-15.36-10.24-25.6-25.6-25.6s-25.6 10.24-25.6 25.6V762.88c0 35.84-28.16 64-64 64H117.76c-35.84 0-64-28.16-64-64v-581.12c0-35.84 28.16-64 64-64h294.4c15.36 0 25.6-10.24 25.6-25.6s-10.24-25.6-25.6-25.6zM291.84 709.12c48.64 0 87.04-38.4 87.04-87.04s-38.4-87.04-87.04-87.04S204.8 570.88 204.8 619.52s38.4 89.6 87.04 89.6m0 51.2c-76.8 0-138.24-64-138.24-140.8s61.44-138.24 138.24-138.24 138.24 61.44 138.24 138.24-61.44 140.8-138.24 140.8zM284.16 245.76c-7.68 0-15.36 2.56-20.48 10.24-7.68 10.24-5.12 28.16 5.12 35.84l207.36 153.6c17.92 12.8 40.96 12.8 56.32-2.56l58.88-48.64c10.24-10.24 12.8-25.6 2.56-35.84s-25.6-12.8-35.84-2.56l-53.76 46.08-204.8-151.04c-5.12-5.12-10.24-5.12-15.36-5.12z"  horiz-adv-x="1024" />

    
    <glyph glyph-name="_postil_history" unicode="&#59670;" d="M576 448h128a64 64 0 0 0 0-128H512a63.808 63.808 0 0 0-64 64V640a64 64 0 1 0 128 0v-192z m-64-576A512 512 0 1 0 512 896a512 512 0 0 0 0-1024z m0 128A384 384 0 1 1 512 768a384 384 0 0 1 0-768z"  horiz-adv-x="1024" />

    
    <glyph glyph-name="_tag_percent" unicode="&#59671;" d="M512 768a384 384 0 1 1 0-768V768z m0-896A512 512 0 1 0 512 896a512 512 0 0 0 0-1024z"  horiz-adv-x="1024" />

    
    <glyph glyph-name="_tag_percent1" unicode="&#59672;" d="M512 768a384 384 0 1 1 384-384H512V768z m0-896A512 512 0 1 0 512 896a512 512 0 0 0 0-1024z"  horiz-adv-x="1024" />

    
    <glyph glyph-name="_zoomout_pressed" unicode="&#59673;" d="M512-64A448 448 0 1 0 512 832a448 448 0 0 0 0-896zM320 448a64 64 0 1 1 0-128h384a64 64 0 0 1 0 128H320z"  horiz-adv-x="1026" />

    
    <glyph glyph-name="_tag_percent2" unicode="&#59674;" d="M512 384m-512 0a512 512 0 1 1 1024 0 512 512 0 1 1-1024 0Z"  horiz-adv-x="1024" />

    
    <glyph glyph-name="_tag_clock" unicode="&#59676;" d="M512-128A512 512 0 1 0 512 896a512 512 0 0 0 0-1024z m64 576V640a64 64 0 1 1-128 0v-256a63.808 63.808 0 0 1 64-64h192a64 64 0 0 1 0 128H576z"  horiz-adv-x="1024" />

    
    <glyph glyph-name="_tag_exclamation" unicode="&#59678;" d="M512-128A512 512 0 1 0 512 896a512 512 0 0 0 0-1024z m0 192a64 64 0 1 1 0 128 64 64 0 0 1 0-128zM512 704a64 64 0 0 1-64-64v-320a64 64 0 1 1 128 0V640a64 64 0 0 1-64 64z"  horiz-adv-x="1024" />

    
    <glyph glyph-name="_tag_resolved" unicode="&#59679;" d="M512-128A512 512 0 1 0 512 896a512 512 0 0 0 0-1024z m-45.248 440.256L331.008 448a64 64 0 0 1-90.56-90.496l181.056-181.056a63.808 63.808 0 0 1 90.496 0L783.552 448a64 64 0 1 1-90.56 90.496L466.752 312.32000000000005z"  horiz-adv-x="1024" />

    
    <glyph glyph-name="_tag_three" unicode="&#59680;" d="M512-128A512 512 0 1 0 512 896a512 512 0 0 0 0-1024z m45.312 529.408c12.8 5.12 25.216 11.52 37.248 19.2a128.896 128.896 0 0 1 52.224 64.512c5.376 13.824 8.064 29.696 8.064 47.616 0 22.528-3.968 42.112-11.904 58.752a112.512 112.512 0 0 1-32.64 41.088 138.752 138.752 0 0 1-47.616 23.808c-17.92 5.12-36.864 7.68-56.832 7.68-20.48 0-39.68-3.2-57.6-9.6-17.92-6.4-33.664-15.616-47.232-27.648a129.216 129.216 0 0 1-31.872-43.008c-7.68-16.64-11.52-35.2-11.52-55.68 0-13.312 3.712-24.064 11.136-32.256a35.392 35.392 0 0 1 27.264-12.288c16.384 0 28.544 3.712 36.48 11.136a35.072 35.072 0 0 1 11.904 26.496c0 17.92 5.376 33.152 16.128 45.696 10.752 12.544 25.344 18.816 43.776 18.816 14.848 0 28.288-6.272 40.32-18.816 12.032-12.544 18.048-28.544 18.048-48 0-9.216-2.048-18.304-6.144-27.264a81.024 81.024 0 0 0-40.32-40.32c-8.96-4.096-18.048-6.144-27.264-6.144-12.8 0-23.296-4.096-31.488-12.288a42.624 42.624 0 0 1-12.288-31.488c0-16.384 4.864-28.672 14.592-36.864 9.728-8.192 20.48-12.288 32.256-12.288 12.288 0 24.192-1.408 35.712-4.224 11.52-2.816 21.888-7.296 31.104-13.44 9.216-6.144 16.64-14.08 22.272-23.808 5.632-9.728 8.448-21.248 8.448-34.56 0-10.752-1.92-21.12-5.76-31.104a75.712 75.712 0 0 0-40.704-43.008 71.808 71.808 0 0 0-30.336-6.528c-14.336 0-26.496 2.176-36.48 6.528a73.984 73.984 0 0 0-24.192 16.128 68.864 68.864 0 0 0-19.2 41.088 37.12 37.12 0 0 1-17.664 30.72 46.528 46.528 0 0 1-14.592 6.528 60.16 60.16 0 0 1-14.592 1.92 44.928 44.928 0 0 1-30.72-11.52 42.112 42.112 0 0 1-13.824-31.488c-0.512-13.312 2.304-28.16 8.448-44.544 6.144-16.384 16-31.872 29.568-46.464 13.568-14.592 30.976-26.88 52.224-36.864 21.248-9.984 46.72-14.976 76.416-14.976 25.6 0 49.152 3.712 70.656 11.136 21.504 7.424 39.936 18.048 55.296 31.872 15.36 13.824 27.392 30.592 36.096 50.304 8.704 19.712 13.056 41.856 13.056 66.432a122.88 122.88 0 0 1-39.936 92.928 134.336 134.336 0 0 1-40.32 25.344 146.56 146.56 0 0 1-45.696 10.752z"  horiz-adv-x="1024" />

    
    <glyph glyph-name="_tag_happy" unicode="&#59682;" d="M512 896C230.4 896 0 665.6 0 384s230.4-512 512-512 512 230.4 512 512S793.6 896 512 896z m199.68-296.96c51.2 0 89.6-40.96 89.6-89.6 0-51.2-40.96-89.6-89.6-89.6s-89.6 40.96-89.6 89.6c-2.56 48.64 38.4 89.6 89.6 89.6z m-399.36 0c51.2 0 89.6-40.96 89.6-89.6 0-51.2-40.96-89.6-89.6-89.6S222.72 460.8 222.72 509.44s40.96 89.6 89.6 89.6z m504.32-378.88c-48.64-122.88-168.96-207.36-302.08-207.36-133.12 0-253.44 84.48-302.08 207.36-7.68 20.48 2.56 40.96 23.04 48.64 20.48 7.68 40.96-2.56 48.64-23.04 35.84-94.72 128-158.72 230.4-158.72s194.56 64 230.4 158.72c7.68 20.48 30.72 30.72 48.64 23.04 20.48-5.12 30.72-28.16 23.04-48.64z"  horiz-adv-x="1024" />

    
    <glyph glyph-name="_add_pic" unicode="&#59683;" d="M929.28 816.64H94.72C43.52 816.64 0 780.8 0 734.72v-716.8c0-46.08 43.52-81.92 94.72-81.92h834.56c51.2 0 94.72 35.84 94.72 81.92v716.8c0 46.08-43.52 81.92-94.72 81.92zM972.8 20.48c0-20.48-20.48-35.84-43.52-35.84H94.72c-23.04 0-43.52 15.36-43.52 35.84v716.8c0 20.48 20.48 35.84 43.52 35.84h834.56c23.04 0 43.52-17.92 43.52-35.84v-716.8zM481.28 258.56c10.24-10.24 25.6-7.68 35.84 2.56s7.68 25.6-2.56 35.84l-61.44 51.2c-17.92 15.36-40.96 15.36-58.88 2.56l-220.16-161.28c-10.24-7.68-12.8-25.6-5.12-35.84 5.12-7.68 12.8-10.24 20.48-10.24 5.12 0 10.24 2.56 15.36 2.56l217.6 161.28 58.88-48.64zM739.84 314.88c-15.36 15.36-40.96 17.92-61.44 5.12l-309.76-220.16c-10.24-7.68-12.8-23.04-5.12-35.84 5.12-7.68 12.8-10.24 20.48-10.24 5.12 0 10.24 0 12.8 2.56l307.2 220.16 130.56-140.8c10.24-10.24 25.6-10.24 35.84 0 12.8 10.24 12.8 25.6 2.56 35.84l-133.12 143.36zM266.24 404.48c66.56 0 117.76 53.76 117.76 117.76S330.24 640 266.24 640s-117.76-53.76-117.76-117.76 51.2-117.76 117.76-117.76z m0 184.32c38.4 0 66.56-30.72 66.56-66.56 0-38.4-30.72-66.56-66.56-66.56S199.68 486.4 199.68 522.24c0 35.84 28.16 66.56 66.56 66.56z"  horiz-adv-x="1024" />

    
    <glyph glyph-name="_add_psd" unicode="&#59684;" d="M366.08 337.92c0-61.44-48.64-81.92-97.28-81.92H235.52v-97.28H179.2V417.28h92.16c64 0 94.72-30.72 94.72-79.36z m-97.28-38.4c25.6 0 43.52 10.24 43.52 35.84 0 33.28-23.04 33.28-51.2 33.28h-25.6v-71.68h33.28v2.56zM401.92 217.6c25.6-10.24 53.76-15.36 76.8-15.36 23.04 0 38.4 12.8 38.4 28.16 0 17.92-15.36 28.16-40.96 38.4-43.52 15.36-84.48 28.16-84.48 81.92 0 51.2 46.08 74.24 97.28 74.24 28.16 0 56.32-7.68 76.8-15.36l-10.24-46.08c-23.04 10.24-48.64 15.36-64 15.36-23.04 0-38.4-7.68-38.4-28.16 0-17.92 23.04-28.16 48.64-35.84 46.08-15.36 76.8-38.4 76.8-79.36 0-48.64-38.4-79.36-92.16-79.36-35.84 0-71.68 7.68-94.72 17.92l10.24 43.52zM619.52 417.28h92.16c89.6 0 128-53.76 128-130.56 0-87.04-48.64-130.56-135.68-130.56h-84.48V417.28z m53.76-217.6h25.6c48.64 0 81.92 15.36 81.92 87.04 0 69.12-28.16 87.04-79.36 87.04h-28.16v-174.08zM967.68 550.4L647.68 888.32l-5.12 5.12S640 893.44 640 896H153.6C94.72 896 48.64 847.36 48.64 791.04v-811.52C48.64-79.36 94.72-128 153.6-128h716.8c58.88 0 104.96 48.64 104.96 104.96V532.48c0 7.68-2.56 12.8-7.68 17.92z m-312.32 256l235.52-248.32h-181.76c-30.72 0-53.76 25.6-53.76 53.76V806.4zM870.4-76.8H153.6c-30.72 0-53.76 25.6-53.76 53.76V791.04C99.84 819.2 122.88 844.8 153.6 844.8h450.56v-232.96c0-58.88 48.64-104.96 104.96-104.96h215.04v-527.36c0-30.72-23.04-56.32-53.76-56.32z"  horiz-adv-x="1024" />

    
    <glyph glyph-name="_tag_sad" unicode="&#59685;" d="M512 896C230.4 896 0 665.6 0 384s230.4-512 512-512 512 230.4 512 512S793.6 896 512 896z m-199.68-296.96c51.2 0 89.6-40.96 89.6-89.6 0-51.2-40.96-89.6-89.6-89.6-51.2 0-89.6 40.96-89.6 89.6s40.96 89.6 89.6 89.6z m460.8-519.68c-7.68-5.12-15.36-7.68-20.48-7.68-12.8 0-23.04 5.12-30.72 17.92-28.16 38.4-128 87.04-209.92 87.04-97.28 0-179.2-43.52-209.92-87.04-12.8-17.92-35.84-23.04-53.76-10.24-17.92 12.8-23.04 35.84-10.24 53.76 48.64 71.68 161.28 120.32 273.92 120.32 89.6 0 225.28-48.64 273.92-120.32 10.24-17.92 5.12-40.96-12.8-53.76z m-61.44 337.92c-51.2 0-89.6 40.96-89.6 89.6 0 51.2 40.96 89.6 89.6 89.6 51.2 0 89.6-40.96 89.6-89.6s-40.96-89.6-89.6-89.6z"  horiz-adv-x="1024" />

    
    <glyph glyph-name="_tag_set" unicode="&#59686;" d="M865.28 304.64c15.36 66.56 66.56 112.64 128 122.88-5.12 51.2-15.36 97.28-33.28 140.8-58.88-15.36-125.44 2.56-166.4 53.76-38.4 48.64-43.52 117.76-17.92 171.52-40.96 25.6-84.48 46.08-128 61.44-25.6-53.76-79.36-89.6-143.36-89.6-61.44 0-112.64 33.28-140.8 81.92-46.08-15.36-89.6-38.4-128-66.56 20.48-51.2 12.8-112.64-25.6-158.72-35.84-43.52-92.16-64-143.36-58.88-17.92-46.08-28.16-92.16-35.84-143.36 51.2-17.92 89.6-58.88 102.4-115.2S128 192 89.6 153.6c25.6-43.52 53.76-81.92 89.6-115.2 46.08 30.72 104.96 35.84 158.72 10.24s87.04-79.36 89.6-135.68c28.16-5.12 56.32-7.68 84.48-7.68 20.48 0 40.96 0 58.88 2.56 0 58.88 33.28 112.64 89.6 140.8 58.88 28.16 128 17.92 174.08-20.48 35.84 30.72 66.56 69.12 92.16 110.08-51.2 38.4-76.8 102.4-61.44 166.4z m-202.24 71.68c0-87.04-69.12-156.16-156.16-156.16-69.12 0-130.56 46.08-148.48 110.08-5.12 15.36-7.68 30.72-7.68 48.64 0 87.04 69.12 156.16 156.16 156.16s156.16-69.12 156.16-156.16v-2.56c0 2.56 0 0 0 0z"  horiz-adv-x="1024" />

    
    <glyph glyph-name="_tag_question" unicode="&#59688;" d="M512-128A512 512 0 1 0 512 896a512 512 0 0 0 0-1024z m0 192a64 64 0 1 1 0 128 64 64 0 0 1 0-128z m0 384a64 64 0 0 1-64-64v-64a64 64 0 1 1 128 0v10.88A192.064 192.064 0 1 1 320 512a64 64 0 1 1 128 0 64 64 0 1 0 64-64z"  horiz-adv-x="1024" />

    
    <glyph glyph-name="_tag_flag" unicode="&#59689;" d="M256 768h576a64 64 0 0 0 64-64v-384a64 64 0 0 0-64-64H256v-256a64 64 0 0 0-128 0V768a64 64 0 1 0 128 0z"  horiz-adv-x="1024" />

    
    <glyph glyph-name="_new_example" unicode="&#59692;" d="M857.6 739.84H560.64L476.16 896H140.8C102.4 896 69.12 862.72 69.12 824.32v-855.04c0-53.76 43.52-97.28 97.28-97.28h691.2c53.76 0 97.28 43.52 97.28 97.28V642.56c0 53.76-43.52 97.28-97.28 97.28z m46.08-770.56c0-25.6-20.48-46.08-46.08-46.08h-691.2c-25.6 0-46.08 20.48-46.08 46.08V688.64h737.28c25.6 0 46.08-20.48 46.08-46.08v-673.28zM788.48 263.68H389.12c-15.36 0-25.6 10.24-25.6 25.6s10.24 25.6 25.6 25.6h399.36c15.36 0 25.6-10.24 25.6-25.6s-12.8-25.6-25.6-25.6zM788.48 458.24H389.12c-15.36 0-25.6 10.24-25.6 25.6s10.24 25.6 25.6 25.6h399.36c15.36 0 25.6-10.24 25.6-25.6s-12.8-25.6-25.6-25.6zM788.48 69.12H389.12c-15.36 0-25.6 10.24-25.6 25.6s10.24 25.6 25.6 25.6h399.36c15.36 0 25.6-10.24 25.6-25.6s-12.8-25.6-25.6-25.6zM222.72 483.84m-25.6 0a25.6 25.6 0 1 1 51.2 0 25.6 25.6 0 1 1-51.2 0ZM222.72 289.28m-25.6 0a25.6 25.6 0 1 1 51.2 0 25.6 25.6 0 1 1-51.2 0ZM222.72 94.72m-25.6 0a25.6 25.6 0 1 1 51.2 0 25.6 25.6 0 1 1-51.2 0Z"  horiz-adv-x="1024" />

    
    <glyph glyph-name="_tag_one" unicode="&#59693;" d="M512-128A512 512 0 1 0 512 896a512 512 0 0 0 0-1024z m64 270.592V614.144c0 26.624-17.728 39.936-53.056 39.936H415.36c-10.24 0-17.792-3.584-22.656-10.752-4.864-7.168-7.296-19.968-7.296-38.4 0-19.456 1.792-32.256 5.376-38.4 3.584-6.144 10.24-9.216 19.968-9.216h37.632v-414.72c0-19.968 30.528-29.952 62.784-29.952s64.832 9.984 64.832 29.952z"  horiz-adv-x="1026" />

    
    <glyph glyph-name="_tag_peace" unicode="&#59694;" d="M512 896C230.4 896 0 665.6 0 384s230.4-512 512-512 512 230.4 512 512S793.6 896 512 896z m-194.56-296.96c51.2 0 89.6-40.96 89.6-89.6 0-51.2-40.96-89.6-89.6-89.6-51.2 0-89.6 40.96-89.6 89.6s40.96 89.6 89.6 89.6z m430.08-483.84h-460.8c-20.48 0-38.4 17.92-38.4 38.4s17.92 38.4 38.4 38.4h460.8c20.48 0 38.4-17.92 38.4-38.4s-17.92-38.4-38.4-38.4z m-33.28 302.08c-51.2 0-89.6 40.96-89.6 89.6 0 51.2 40.96 89.6 89.6 89.6 51.2 0 89.6-40.96 89.6-89.6 2.56-48.64-38.4-89.6-89.6-89.6z"  horiz-adv-x="1024" />

    
    <glyph glyph-name="_tag_four" unicode="&#59695;" d="M512-128A512 512 0 1 0 512 896a512 512 0 0 0 0-1024z m95.232 216.576c19.456 0 32.512 2.048 39.168 6.144 6.656 4.096 9.984 12.032 9.984 23.808v78.336h25.344c14.336 0 21.504 14.848 21.504 44.544 0 28.672-7.168 43.008-21.504 43.008h-25.344V584.704c0 19.456-4.352 33.536-13.056 42.24C634.624 635.648 619.52 640 598.016 640c-9.216 0-17.152-0.896-23.808-2.688a48.32 48.32 0 0 1-19.2-10.752c-6.144-5.376-12.672-12.8-19.584-22.272-6.912-9.472-15.232-21.888-24.96-37.248L336.128 300.544c-4.096-5.12-7.168-9.6-9.216-13.44a52.032 52.032 0 0 1-4.608-11.904 69.696 69.696 0 0 1-1.92-13.056 295.168 295.168 0 0 1-0.384-16.128c0-14.336 3.2-26.112 9.6-35.328 6.4-9.216 17.536-13.824 33.408-13.824h196.608v-78.336c0-10.752 3.328-18.432 9.984-23.04 6.656-4.608 19.2-6.912 37.632-6.912z m-47.616 195.84H426.752l132.864 211.968v-211.968z"  horiz-adv-x="1024" />

    
    <glyph glyph-name="_tag_people" unicode="&#59696;" d="M512 384a256 256 0 1 0 0 512 256 256 0 0 0 0-512z m-384-448a384 384 0 1 0 768 0H128z"  horiz-adv-x="1024" />

    
    <glyph glyph-name="_tag_two" unicode="&#59697;" d="M512-128A512 512 0 1 0 512 896a512 512 0 0 0 0-1024z m169.344 292.864c0 29.696-8.704 44.544-26.112 44.544H462.464c19.456 15.872 38.016 32.128 55.68 48.768s34.432 33.664 50.304 51.072c13.312 14.848 26.368 30.592 39.168 47.232s24.192 33.792 34.176 51.456c9.984 17.664 18.048 35.584 24.192 53.76a168.32 168.32 0 0 1 9.216 54.144c0 44.544-13.056 80.384-39.168 107.52-26.112 27.136-63.232 40.704-111.36 40.704-57.344 0-99.84-14.848-127.488-44.544-27.648-29.696-41.472-70.144-41.472-121.344 0-17.92 3.584-29.952 10.752-36.096 7.168-6.144 21.248-9.216 42.24-9.216 17.408 0 29.568 3.456 36.48 10.368 6.912 6.912 10.368 18.56 10.368 34.944 0 24.576 4.992 43.52 14.976 56.832 9.984 13.312 24.96 19.968 44.928 19.968 17.92 0 32.256-5.888 43.008-17.664 10.752-11.776 16.128-27.136 16.128-46.08 0-19.968-4.864-39.936-14.592-59.904a352 352 0 0 0-36.48-58.752c-14.592-19.2-30.72-37.632-48.384-55.296a1164.8 1164.8 0 0 0-50.304-47.616c-15.872-14.08-29.824-26.368-41.856-36.864-12.032-10.496-19.584-18.048-22.656-22.656-5.632-7.68-9.6-15.744-11.904-24.192a124.16 124.16 0 0 1-4.224-24.96 78.72 78.72 0 0 1 8.064-42.624c6.4-12.032 13.696-18.048 21.888-18.048h281.088c17.408 0 26.112 14.848 26.112 44.544z"  horiz-adv-x="1024" />

    
    <glyph glyph-name="_tag_five" unicode="&#59699;" d="M512-128A512 512 0 1 0 512 896a512 512 0 0 0 0-1024z m-46.848 593.92l14.592 99.072h161.28c15.872 0 23.808 14.848 23.808 44.544 0 29.696-7.936 44.544-23.808 44.544H440.576c-14.848 0-24.96-3.2-30.336-9.6-5.376-6.4-9.344-17.024-11.904-31.872l-31.488-212.736a44.8 44.8 0 0 1 1.152-23.04 28.608 28.608 0 0 1 9.984-13.824 24.128 24.128 0 0 1 14.208-4.608c5.12 0 9.984 1.536 14.592 4.608 6.144 4.096 12.032 7.296 17.664 9.6a94.72 94.72 0 0 0 19.2 5.376c7.168 1.28 15.232 2.176 24.192 2.688a568.96 568.96 0 0 0 31.872 0.768c28.16 0 49.024-7.552 62.592-22.656 13.568-15.104 20.352-35.712 20.352-61.824 0-10.24-1.92-20.864-5.76-31.872s-9.472-21.248-16.896-30.72c-7.424-9.472-16.512-17.28-27.264-23.424a72.96 72.96 0 0 0-36.864-9.216c-13.312 0-28.672 4.096-46.08 12.288a142.336 142.336 0 0 0-44.544 32.256c-8.704 9.216-17.152 12.928-25.344 11.136a29.568 29.568 0 0 1-18.432-11.136c-11.776-16.384-17.28-30.08-16.512-41.088 0.768-11.008 5.76-20.864 14.976-29.568 19.456-23.552 39.936-39.936 61.44-49.152 21.504-9.216 47.616-13.824 78.336-13.824a168.32 168.32 0 0 1 72.192 13.824c22.016 9.728 41.088 23.04 57.216 39.936a184.32 184.32 0 0 1 51.072 127.488 207.36 207.36 0 0 1-11.904 72.192 149.056 149.056 0 0 1-87.936 90.624 193.024 193.024 0 0 1-70.656 12.288c-12.8 0-21.888-0.256-27.264-0.768-5.376-0.512-11.136-1.28-17.28-2.304z"  horiz-adv-x="1024" />

    
    <glyph glyph-name="_layertree_forbid" unicode="&#59700;" d="M335.552 116.99199999999996a320 320 0 0 1 443.456 443.456l-443.52-443.456z m-90.56 90.56l443.52 443.456a320 320 0 0 1-443.456-443.456zM512-64A448 448 0 1 0 512 832a448 448 0 0 0 0-896z"  horiz-adv-x="1024" />

    
    <glyph glyph-name="_nav_notice" unicode="&#59701;" d="M575.68 761.664A320.128 320.128 0 0 0 832 448v-320a64 64 0 0 0 0-128H192a64 64 0 0 0 0 128V448c0 154.88 110.08 284.16 256.32 313.664A64.768 64.768 0 0 0 448 768V832a64 64 0 1 0 128 0v-64c0-2.112-0.128-4.224-0.32-6.336zM704 128V448a192 192 0 1 1-384 0v-320h384z m-192-128a64 64 0 1 0 0-128 64 64 0 0 0 0 128z"  horiz-adv-x="1024" />

    
    <glyph glyph-name="_postil_font_color" unicode="&#59702;" d="M896-25.6H128c-28.16 0-51.2-23.04-51.2-51.2s23.04-51.2 51.2-51.2h768c28.16 0 51.2 23.04 51.2 51.2s-23.04 51.2-51.2 51.2zM857.6 117.76L535.04 847.36c0 2.56-2.56 5.12-5.12 5.12-2.56 2.56-5.12 2.56-7.68 5.12h-2.56c-2.56 0-5.12 0-7.68 2.56h-2.56-2.56c-2.56 0-5.12 0-7.68-2.56h-2.56c-2.56 0-5.12-2.56-7.68-5.12l-5.12-5.12L166.4 117.76c-5.12-12.8 0-28.16 12.8-33.28s28.16 0 33.28 12.8l128 289.28h340.48l128-289.28c5.12-12.8 20.48-17.92 33.28-12.8 15.36 5.12 20.48 17.92 15.36 33.28zM363.52 437.76L512 773.12l148.48-335.36H363.52z"  horiz-adv-x="1024" />

    
    <glyph glyph-name="_postil_fill" unicode="&#59705;" d="M282.24 448.832h443.328l0.704 1.152-332.544 192-111.552-193.152zM832 377.15200000000004l-250.88-434.56a64 64 0 0 0-87.424-23.424l-443.392 256A64 64 0 0 0 26.88 262.592l256 443.392a64 64 0 1 0 64 110.848l609.664-352L959.36 192a63.36 63.36 0 0 0-63.36-64 64 64 0 0 0-64 64V377.08799999999997z"  horiz-adv-x="1024" />

    
    <glyph glyph-name="_tree_edit" unicode="&#59655;" d="M670.4 664.96l135.744-135.808-518.912-510.592a96 96 0 0 0-135.232 0.576l-0.512 0.512a95.232 95.232 0 0 0 0.512 135.232l518.4 510.08z m180.992 90.432l45.248-45.248a64 64 0 1 0-90.496-90.496l-45.248 45.248a64 64 0 1 0 90.496 90.496z"  horiz-adv-x="1024" />

    
    <glyph glyph-name="_align_averagev" unicode="&#59704;" d="M768 448v-128a64 64 0 0 0-64-64H320a64 64 0 0 0-64 64V448a64 64 0 0 0 64 64h384a64 64 0 0 0 64-64z m128-384a64 64 0 0 0-64-64H192a64 64 0 0 0 0 128h640a64 64 0 0 0 64-64z m0 640a64 64 0 0 0-64-64H192a64 64 0 0 0 0 128h640a64 64 0 0 0 64-64z"  horiz-adv-x="1024" />

    
    <glyph glyph-name="_align_bottom" unicode="&#59707;" d="M192 0h640a64 64 0 0 1 0 128H192a64 64 0 1 1 0-128z m64 192h128a64 64 0 0 1 64 64V512a64 64 0 0 1-64 64H256a64 64 0 0 1-64-64v-256a64 64 0 0 1 64-64z m384 0h128a64 64 0 0 1 64 64V704a64 64 0 0 1-64 64h-128a64 64 0 0 1-64-64v-448a64 64 0 0 1 64-64z"  horiz-adv-x="1024" />

    
    <glyph glyph-name="_align_averageh" unicode="&#59708;" d="M448 640h128a64 64 0 0 0 64-64v-384a64 64 0 0 0-64-64H448a64 64 0 0 0-64 64V576a64 64 0 0 0 64 64z m384 128a64 64 0 0 0 64-64v-640a64 64 0 0 0-128 0V704a64 64 0 0 0 64 64zM192 768a64 64 0 0 0 64-64v-640a64 64 0 0 0-128 0V704a64 64 0 0 0 64 64z"  horiz-adv-x="1024" />

    
    <glyph glyph-name="_align_hcenter" unicode="&#59709;" d="M576 448H448V576a64 64 0 0 1-64 64H256a64 64 0 0 1-64-64v-128H128a64 64 0 1 1 0-128h64v-128a64 64 0 0 1 64-64h128a64 64 0 0 1 64 64V320h128v-256a64 64 0 0 1 64-64h128a64 64 0 0 1 64 64V320h64a64 64 0 0 1 0 128h-64V704a64 64 0 0 1-64 64h-128a64 64 0 0 1-64-64v-256z"  horiz-adv-x="1024" />

    
    <glyph glyph-name="_align_top" unicode="&#59710;" d="M192 768h640a64 64 0 0 0 0-128H192a64 64 0 1 0 0 128z m64-192h128a64 64 0 0 0 64-64v-256a64 64 0 0 0-64-64H256a64 64 0 0 0-64 64V512a64 64 0 0 0 64 64z m384 0h128a64 64 0 0 0 64-64v-448a64 64 0 0 0-64-64h-128a64 64 0 0 0-64 64V512a64 64 0 0 0 64 64z"  horiz-adv-x="1024" />

    
    <glyph glyph-name="_align_left" unicode="&#59711;" d="M128 704v-640a64 64 0 0 1 128 0V704a64 64 0 1 1-128 0z m192-64v-128a64 64 0 0 1 64-64h256a64 64 0 0 1 64 64V640a64 64 0 0 1-64 64H384a64 64 0 0 1-64-64z m0-384v-128a64 64 0 0 1 64-64h448a64 64 0 0 1 64 64v128a64 64 0 0 1-64 64H384a64 64 0 0 1-64-64z"  horiz-adv-x="1024" />

    
    <glyph glyph-name="_align_vcenter" unicode="&#59712;" d="M448 320V448H320a64 64 0 0 0-64 64V640a64 64 0 0 0 64 64h128V768a64 64 0 1 0 128 0v-64h128a64 64 0 0 0 64-64v-128a64 64 0 0 0-64-64H576v-128h256a64 64 0 0 0 64-64v-128a64 64 0 0 0-64-64H576v-64a64 64 0 0 0-128 0v64H192a64 64 0 0 0-64 64v128a64 64 0 0 0 64 64h256z"  horiz-adv-x="1024" />

    
    <glyph glyph-name="_align_right" unicode="&#59713;" d="M896 704v-640a64 64 0 0 0-128 0V704a64 64 0 1 0 128 0z m-192-64v-128a64 64 0 0 0-64-64H384a64 64 0 0 0-64 64V640a64 64 0 0 0 64 64h256a64 64 0 0 0 64-64z m0-384v-128a64 64 0 0 0-64-64H192a64 64 0 0 0-64 64v128a64 64 0 0 0 64 64h448a64 64 0 0 0 64-64z"  horiz-adv-x="1024" />

    
    <glyph glyph-name="_postil_bordercolo" unicode="&#59714;" d="M670.4 664.96l135.744-135.808-518.912-510.592a96 96 0 0 0-135.232 0.576l-0.512 0.512a95.232 95.232 0 0 0 0.512 135.232l518.4 510.08z m180.992 90.432l45.248-45.248a64 64 0 1 0-90.496-90.496l-45.248 45.248a64 64 0 1 0 90.496 90.496z"  horiz-adv-x="1024" />

    
    <glyph glyph-name="_download" unicode="&#59715;" d="M832 0v192a64 64 0 0 0 128 0v-256a64 64 0 0 0-64-64H128a63.808 63.808 0 0 0-64 64v256a64 64 0 0 0 128 0v-192h640zM576 293.504l71.744 71.744a64 64 0 1 0 90.56-90.496l-181.056-181.056a63.808 63.808 0 0 0-90.496 0L285.696 274.75199999999995A64 64 0 1 0 376.32 365.24800000000005L448 293.504V768a64 64 0 0 0 128 0v-474.496z"  horiz-adv-x="1024" />

    
    <glyph glyph-name="_interaction_none" unicode="&#59731;" d="M335.552 116.99199999999996a320 320 0 0 1 443.456 443.456l-443.52-443.456z m-90.56 90.56l443.52 443.456a320 320 0 0 1-443.456-443.456zM512-64A448 448 0 1 0 512 832a448 448 0 0 0 0-896z"  horiz-adv-x="1024" />

    
    <glyph glyph-name="_interaction_fadei" unicode="&#59732;" d="M0 896h768v-768H0zM832 640v-576H256v-192h768V640z"  horiz-adv-x="1024" />

    
    <glyph glyph-name="_interaction_gestu7" unicode="&#59753;" d="M512 810.666667c234.666667 0 426.666667-192 426.666667-426.666667s-192-426.666667-426.666667-426.666667S85.333333 149.333333 85.333333 384 277.333333 810.666667 512 810.666667m0 85.333333C230.4 896 0 665.6 0 384s230.4-512 512-512 512 230.4 512 512S793.6 896 512 896z"  horiz-adv-x="1024" />

    
    <glyph glyph-name="_board_play" unicode="&#59758;" d="M512 896C229.668571 896 0 666.331429 0 384s229.668571-512 512-512 512 229.668571 512 512S794.331429 896 512 896z m140.434286-542.72l-194.56-122.88c-26.331429-17.554286-48.274286-2.925714-48.274286 30.72V506.88c0 33.645714 21.942857 48.274286 48.274286 30.72l194.56-122.88c27.794286-16.091429 27.794286-45.348571 0-61.44z"  horiz-adv-x="1024" />

    
    <glyph glyph-name="_board_pause" unicode="&#59759;" d="M512 896C229.668571 896 0 666.331429 0 384s229.668571-512 512-512 512 229.668571 512 512S794.331429 896 512 896z m-43.885714-629.028571c0-24.868571-19.017143-43.885714-43.885715-43.885715s-43.885714 19.017143-43.885714 43.885715V501.028571c0 24.868571 19.017143 43.885714 43.885714 43.885715s43.885714-19.017143 43.885715-43.885715v-234.057142z m175.542857 0c0-24.868571-19.017143-43.885714-43.885714-43.885715s-43.885714 19.017143-43.885715 43.885715V501.028571c0 24.868571 19.017143 43.885714 43.885715 43.885715s43.885714-19.017143 43.885714-43.885715v-234.057142z"  horiz-adv-x="1024" />

    
    <glyph glyph-name="_reset" unicode="&#59764;" d="M552.896 575.808A224 224 0 1 0 320 352a64 64 0 0 1-128 0 352 352 0 1 1 364.992 351.744l24.512 24.512a64 64 0 0 1-90.496 90.496L355.2 683.008a64 64 0 0 1 0-90.56l135.808-135.744A64 64 0 0 1 581.504 547.2l-28.608 28.608z"  horiz-adv-x="1024" />

    
    <glyph glyph-name="_center" unicode="&#59771;" d="M576 512a64 64 0 1 0 0-128 64 64 0 0 0 0 128zM320 704h384a128 128 0 0 0 128-128v-384a128 128 0 0 0-128-128H320a128 128 0 0 0-128 128V576a128 128 0 0 0 128 128z m0-128v-384h384V576H320zM64 512a64 64 0 0 0 64-64v-128a64 64 0 1 0-128 0V448a64 64 0 0 0 64 64z m384 384h128a64 64 0 1 0 0-128H448a64 64 0 1 0 0 128z m0-896h128a64 64 0 0 0 0-128H448a64 64 0 0 0 0 128z m512 512a64 64 0 0 0 64-64v-128a64 64 0 0 0-128 0V448a64 64 0 0 0 64 64z"  horiz-adv-x="1024" />

    
    <glyph glyph-name="_scale" unicode="&#59784;" d="M192 613.504V576a64 64 0 1 0-128 0V768a63.808 63.808 0 0 0 64 64h192a64 64 0 1 0 0-128h-37.504l143.552-143.552a64 64 0 0 0-90.496-90.496L192 613.504z m636.8 0l-143.552-143.552a64 64 0 0 0-90.496 90.496L738.304 704h-37.504a64 64 0 1 0 0 128h192a63.808 63.808 0 0 0 64-64v-192a64 64 0 0 0-128 0v37.504zM192 157.69600000000003l143.552 143.552a64 64 0 1 0 90.496-90.496L282.496 67.20000000000005H320a64 64 0 1 0 0-128H128a63.808 63.808 0 0 0-64 64v192a64 64 0 1 0 128 0v-37.504z m636.8 0v37.504a64 64 0 1 0 128 0v-192a63.808 63.808 0 0 0-64-64h-192a64 64 0 1 0 0 128h37.504l-143.552 143.552a64 64 0 0 0 90.496 90.496l143.552-143.552z"  horiz-adv-x="1024" />

    
    <glyph glyph-name="_icon_fixedpoint" unicode="&#58939;" d="M512 384m-32 0a32 32 0 1 1 64 0 32 32 0 1 1-64 0ZM992 416H896A384 384 0 0 1 544 768V864a32 32 0 0 1-64 0V768A384 384 0 0 1 128 416H32a32 32 0 0 1 0-64H128A384 384 0 0 1 480 0v-96a32 32 0 0 1 64 0V0A384 384 0 0 1 896 352h96a32 32 0 0 1 0 64z m-448-352v96a32 32 0 0 1-64 0V64a320 320 0 0 0-284.8 288H288a32 32 0 0 1 0 64H195.2A320 320 0 0 0 480 700.8V608a32 32 0 0 1 64 0V700.8A320 320 0 0 0 832 416h-96a32 32 0 0 1 0-64H832A320 320 0 0 0 544 64z"  horiz-adv-x="1024" />

    
    <glyph glyph-name="_icon_show" unicode="&#58941;" d="M512 832a512.064 512.064 0 0 0 508.032-448A512.064 512.064 0 0 0 3.968 384 512.064 512.064 0 0 0 512 832z m0-768c188.8 0 348.16 137.024 378.688 320A384.128 384.128 0 0 1 133.312 384 384.128 384.128 0 0 1 512 64z m0 128a192 192 0 1 0 0 384 192 192 0 0 0 0-384z"  horiz-adv-x="1024" />

    
    <glyph glyph-name="_icon_conceal" unicode="&#58942;" d="M685.312 466.752a192 192 0 0 0-256.064-256.064L328.96 110.39999999999998A384.128 384.128 0 0 1 890.752 384a381.696 381.696 0 0 1-94.272 193.92l-111.168-111.168zM594.752 557.312l100.288 100.288A384.128 384.128 0 0 1 133.248 384a381.696 381.696 0 0 1 94.272-193.92l111.168 111.168a192 192 0 0 0 256.064 256.064z m193.728 193.664L874.048 836.544a64 64 0 0 0 90.496-90.496l-77.44-77.504A510.208 510.208 0 0 0 1019.968 384 512.064 512.064 0 0 0 235.52 17.024l-85.568-85.568A64 64 0 1 0 59.52 21.951999999999998l77.44 77.504A510.208 510.208 0 0 0 4.032 384 512.064 512.064 0 0 0 788.48 750.976z"  horiz-adv-x="1024" />

    
    <glyph glyph-name="_icon_italic" unicode="&#58948;" d="M377.929143 91.42857100000003l48.713143 585.142858H365.714286a73.142857 73.142857 0 1 0 0 146.285714h292.571428a73.142857 73.142857 0 1 0 0-146.285714H572.928l-48.713143-585.142858H585.142857a73.142857 73.142857 0 0 0 0-146.285714H292.571429a73.142857 73.142857 0 0 0 0 146.285714h85.357714z"  horiz-adv-x="1024" />

    
    <glyph glyph-name="_icon_lineThrough" unicode="&#58949;" d="M585.142857 384H512h73.142857zM305.005714 530.285714A219.428571 219.428571 0 0 0 512 822.857143h73.142857c59.538286 0 115.419429-23.917714 156.379429-65.462857A73.142857 73.142857 0 1 0 637.293714 654.628571 72.704 72.704 0 0 1 585.142857 676.571429H512a73.142857 73.142857 0 1 1 0-146.285715h73.142857-280.137143z m474.916572-219.428571A256 256 0 0 0 548.571429-54.85714299999995h-73.142858a255.634286 255.634286 0 0 0-204.507428 101.961143 73.142857 73.142857 0 0 0 116.809143 88.064c20.699429-27.355429 52.736-43.739429 87.698285-43.739429h73.142858a109.714286 109.714286 0 0 1 0 219.428572H219.428571a73.142857 73.142857 0 1 0 0 146.285714h585.142858a73.142857 73.142857 0 0 0 0-146.285714h-24.649143z"  horiz-adv-x="1024" />

    
    <glyph glyph-name="_icon_underline" unicode="&#58950;" d="M292.571429 91.42857100000003h438.857142a73.142857 73.142857 0 0 0 0-146.285714H292.571429a73.142857 73.142857 0 0 0 0 146.285714z m365.714285 658.285715a73.142857 73.142857 0 1 0 146.285715 0v-292.571429a292.571429 292.571429 0 1 0-585.142858 0V749.714286a73.142857 73.142857 0 1 0 146.285715 0v-292.571429a146.285714 146.285714 0 1 1 292.571428 0V749.714286z"  horiz-adv-x="1024" />

    
    <glyph glyph-name="_icon_bold" unicode="&#58951;" d="M684.032 418.377143A256 256 0 0 0 548.571429-54.85714299999995H219.428571a73.142857 73.142857 0 0 0-73.142857 73.142857V749.714286a73.142857 73.142857 0 0 0 73.142857 73.142857h256a256 256 0 0 0 208.603429-404.48zM475.428571 310.85714299999995H292.571429v-219.428572h256a109.714286 109.714286 0 0 1 0 219.428572h-73.142858z m0 146.285714a109.714286 109.714286 0 0 1 0 219.428572H292.571429v-219.428572h182.857142z"  horiz-adv-x="1024" />

    
    <glyph glyph-name="_icon_zoomin" unicode="&#58911;" d="M804.266667 676.266667a21.333333 21.333333 0 0 1-30.293334 0L597.333333 499.626667V618.666667a21.333333 21.333333 0 0 1-42.666666 0v-170.666667a21.333333 21.333333 0 0 1 21.333333-21.333333h170.666667a21.333333 21.333333 0 0 1 0 42.666666h-119.04l177.066666 177.066667a21.333333 21.333333 0 0 1-0.426666 29.866667zM448 341.33333300000004h-170.666667a21.333333 21.333333 0 0 1 0-42.666666h119.04l-176.64-177.066667a21.333333 21.333333 0 1 1 30.293334-30.293333L426.666667 268.373333v-119.04a21.333333 21.333333 0 0 1 42.666666 0v170.666667a21.333333 21.333333 0 0 1-21.333333 21.333333z"  horiz-adv-x="1024" />

    
    <glyph glyph-name="_icon_zoomout" unicode="&#58912;" d="M789.333333 682.666667h-170.666666a21.333333 21.333333 0 0 1 0-42.666667h119.04l-177.066667-177.066667a21.333333 21.333333 0 1 1 30.293333-30.293333L768 609.7066669999999V490.666667a21.333333 21.333333 0 0 1 42.666667 0v170.666666a21.333333 21.333333 0 0 1-21.333334 21.333334zM433.066667 334.93333299999995L256 158.29333299999996V277.33333300000004a21.333333 21.333333 0 0 1-42.666667 0v-170.666666a21.333333 21.333333 0 0 1 21.333334-21.333334h170.666666a21.333333 21.333333 0 0 1 0 42.666667H286.293333l177.066667 177.066667a21.333333 21.333333 0 0 1-30.293333 30.293333z"  horiz-adv-x="1024" />

    
    <glyph glyph-name="_icon_right" unicode="&#58913;" d="M768 354.55999999999995a20.907 20.907 0 0 1-5.12 23.467L610.987 526.933a21.333 21.333 0 0 1-30.294 0 20.907 20.907 0 0 1 0-29.866L695.04 384H277.333a21.333 21.333 0 0 1 0-42.667H695.04L580.693 228.26700000000005a20.907 20.907 0 0 1 0-29.867 21.333 21.333 0 0 1 30.294 0L761.6 347.307a21.333 21.333 0 0 1 6.4 7.253z"  horiz-adv-x="1024" />

    
    <glyph glyph-name="_icon_down" unicode="&#58914;" d="M697.6 315.307a20.907 20.907 0 0 1-29.867 0L554.667 200.96000000000004V618.6669999999999a21.333 21.333 0 0 1-42.667 0V200.96000000000004L398.933 315.307a20.907 20.907 0 0 1-29.866 0 21.333 21.333 0 0 1 0-30.294L517.973 134.39999999999998a20.907 20.907 0 0 1 14.934-6.4 20.907 20.907 0 0 1 7.68 0 21.333 21.333 0 0 1 7.253 5.12l148.907 150.613a21.333 21.333 0 0 1 0.853 31.574z"  horiz-adv-x="1024" />

    
    <glyph glyph-name="_icon_left" unicode="&#58915;" d="M746.667 384H328.96l114.347 113.067a20.907 20.907 0 0 1 0 29.866 21.333 21.333 0 0 1-30.294 0L262.827 378.02700000000004a20.907 20.907 0 0 1 0-30.72L413.44 198.39999999999998a21.333 21.333 0 0 1 30.293 0 20.907 20.907 0 0 1 0 29.867L328.96 341.33299999999997h417.707a21.333 21.333 0 0 1 0 42.667z"  horiz-adv-x="1024" />

    
    <glyph glyph-name="_icon_up" unicode="&#58916;" d="M697.6 482.987L548.693 633.173a20.907 20.907 0 0 1-30.72 0L369.067 482.987a21.333 21.333 0 0 1 0-30.294 20.907 20.907 0 0 1 29.866 0L512 567.04v-417.707a21.333 21.333 0 0 1 42.667 0V567.04l113.066-114.347a20.907 20.907 0 0 1 29.867 0 21.333 21.333 0 0 1 0 30.294z"  horiz-adv-x="1024" />

    
    <glyph glyph-name="_icon_phone" unicode="&#58923;" d="M640 768a64 64 0 0 0-64-64H448a64 64 0 0 0-64 64H320v-768h384V768h-64zM320 896h384a128 128 0 0 0 128-128v-768a128 128 0 0 0-128-128H320a128 128 0 0 0-128 128V768a128 128 0 0 0 128 128z"  horiz-adv-x="1024" />

    
    <glyph glyph-name="_icon_web" unicode="&#58924;" d="M448 128H64a64 64 0 0 0-64 64V768a64 64 0 0 0 64 64h896a64 64 0 0 0 64-64v-576a64 64 0 0 0-64-64H576v-64h192a64 64 0 0 0 0-128H256a64 64 0 0 0 0 128h192v64zM128 704v-448h768V704H128z"  horiz-adv-x="1024" />

    
    <glyph glyph-name="_group_view" unicode="&#58932;" d="M799.872 296.06399999999996A352.128 352.128 0 0 0 1024-32a64 64 0 0 0-128 0 224 224 0 0 1-448 0 64 64 0 0 0-128 0 352.128 352.128 0 0 0 224.128 328.064 224 224 0 1 0 255.744 0z m-430.08 189.312l7.488-3.84a64 64 0 1 0-60.736-112.704A128 128 0 0 1 128 256a64 64 0 0 0-128 0 256 256 0 0 0 142.144 229.376 192 192 0 1 0 227.648 0zM672 384a96 96 0 1 1 0 192 96 96 0 0 1 0-192zM256 576a64 64 0 1 1 0 128 64 64 0 0 1 0-128z"  horiz-adv-x="1024" />

    
    <glyph glyph-name="_icon_empty1" unicode="&#58929;" d="M512 640a256 256 0 1 1 256-256 256 256 0 0 1-256 256zM298.667 384a213.333 213.333 0 0 0 49.066 134.4L646.4 219.73299999999995A213.333 213.333 0 0 0 512 170.66700000000003 213.333 213.333 0 0 0 298.667 384z m377.6-134.4L377.6 548.267A213.333 213.333 0 0 0 512 597.3330000000001 213.333 213.333 0 0 0 725.333 384a213.333 213.333 0 0 0-49.066-134.4z"  horiz-adv-x="1024" />

    
    <glyph glyph-name="_private" unicode="&#58937;" d="M768 448h128a64 64 0 0 0 64-64v-448a64 64 0 0 0-64-64H128a64 64 0 0 0-64 64V384a64 64 0 0 0 64 64h128V768a64 64 0 0 0 64 64h384a64 64 0 0 0 64-64v-320z m-64-128H192v-320h640V320h-128z m-64 128V704H384v-256h256z m-128-192a64 64 0 0 0 64-64v-64a64 64 0 0 0-128 0v64a64 64 0 0 0 64 64z"  horiz-adv-x="1024" />

    
    <glyph glyph-name="_icon_fade-in" unicode="&#58970;" d="M640 426.667v256H213.333V256h256v-170.667h341.334V426.667z m-384-128V640h341.333v-213.333h-128v-128zM597.333 384v-85.333H512V384zM768 128H512V256h128V384h128z"  horiz-adv-x="1024" />

    
    <glyph glyph-name="_infinite" unicode="&#58971;" d="M318.336 148.544c-122.816 0-224 99.2-224 219.456 0 120.32 101.184 219.392 224 219.392a227.2 227.2 0 0 0 121.152-34.112 32.96 32.96 0 0 0 9.92-45.504 34.496 34.496 0 0 0-46.464-9.728 155.264 155.264 0 0 1-84.608 24.32c-86.272 0-157.632-69.888-157.632-154.368 0-84.48 71.36-154.432 157.632-154.432S475.968 283.52 475.968 368c0 17.92 14.912 32.512 33.152 32.512 18.304 0 33.216-14.656 33.216-32.512 0-120.32-101.184-219.456-224-219.456zM699.968 148.544c-46.464 0-91.264 12.992-127.744 39.04a32.896 32.896 0 0 0-8.32 45.44c9.984 14.72 31.552 17.92 46.464 8.192 26.56-17.92 58.048-27.648 89.6-27.648 86.272 0 157.632 69.888 157.632 154.432 0 84.48-71.36 154.368-157.632 154.368S542.336 452.48 542.336 368c0-17.92-14.912-32.512-33.216-32.512a32.96 32.96 0 0 0-33.152 32.512c0 120.32 101.184 219.392 224 219.392 122.752 0 224-97.472 224-219.392 0-120.32-101.248-219.456-224-219.456z"  horiz-adv-x="1024" />

    
    <glyph glyph-name="_selection_tool1" unicode="&#58972;" d="M888.035556 238.421333l-524.515556 524.515556a11.377778 11.377778 0 0 1-19.456-7.964445V13.084444a11.377778 11.377778 0 0 1 19.456-8.078222l213.902222 214.016h302.592a11.377778 11.377778 0 0 1 8.021334 19.399111z"  horiz-adv-x="1024" />

    
    <glyph glyph-name="_close" unicode="&#58973;" d="M602.496 384l226.304-226.304a64 64 0 0 0-90.496-90.496L512 293.504 285.696 67.20000000000005a64 64 0 1 0-90.496 90.496L421.504 384 195.2 610.304A64 64 0 0 0 285.696 700.8L512 474.496l226.304 226.304a64 64 0 0 0 90.496-90.496L602.496 384z"  horiz-adv-x="1024" />

    
    <glyph glyph-name="_search" unicode="&#58976;" d="M679.401192 158.04102699999999a415.943328 415.943328 0 1 0 85.556343 95.474991l180.135456-180.199447a63.991281 63.991281 0 0 0-90.483672-90.483672l-175.208127 175.144137zM416.013078 191.95640600000002a287.960765 287.960765 0 1 1 0 575.921531 287.960765 287.960765 0 0 1 0-575.921531z"  horiz-adv-x="1024" />

    
    <glyph glyph-name="_ascending" unicode="&#58979;" d="M320 549.44v-485.504a64 64 0 1 1 128 0V703.424a64 64 0 0 1-109.248 45.824L192 602.432A64 64 0 0 1 282.496 512L320 549.44z"  horiz-adv-x="1024" />

    
    <glyph glyph-name="_grid" unicode="&#58980;" d="M192 768h192a64 64 0 0 0 64-64v-192a64 64 0 0 0-64-64H192a64 64 0 0 0-64 64V704a64 64 0 0 0 64 64z m0-448h192a64 64 0 0 0 64-64v-192a64 64 0 0 0-64-64H192a64 64 0 0 0-64 64v192a64 64 0 0 0 64 64z m448 448h192a64 64 0 0 0 64-64v-192a64 64 0 0 0-64-64h-192a64 64 0 0 0-64 64V704a64 64 0 0 0 64 64z m0-448h192a64 64 0 0 0 64-64v-192a64 64 0 0 0-64-64h-192a64 64 0 0 0-64 64v192a64 64 0 0 0 64 64z"  horiz-adv-x="1024" />

    
    <glyph glyph-name="_descending" unicode="&#58981;" d="M690.752 24.960000000000036l148.928 148.352 0.064 0.128a63.872 63.872 0 0 1 0 90.304l-0.064 0.128a64 64 0 0 1-90.432 0.064L704 218.88V704a64 64 0 0 1-128 0v-640a64 64 0 0 1 114.752-39.04z"  horiz-adv-x="1024" />

    
    <glyph glyph-name="_collected" unicode="&#58982;" d="M482.24 16.320000009999944l-194.048-101.952a64 64 0 0 0-92.8 67.456L232.32 197.76000001a64 64 0 0 1-18.368 56.64L56.96 407.42400001a64 64 0 0 0 35.52 109.248l216.896 31.488a64 64 0 0 1 48.192 35.008L454.592 779.71200001a64 64 0 0 0 114.816 0l96.96-196.544a64 64 0 0 1 48.192-35.008l216.96-31.488a64 64 0 0 0 35.456-109.184l-156.992-152.96a64 64 0 0 1-18.368-56.704l37.056-216a64 64 0 0 0-92.864-67.456l-194.048 101.952a64 64 0 0 1-59.52 0z"  horiz-adv-x="1024" />

    
    <glyph glyph-name="_collect" unicode="&#58983;" d="M355.648-90.49599998999997a128 128 0 0 0-185.728 134.912l29.824 174.08-126.528 123.392a128 128 0 0 0 70.976 218.304l174.848 25.408 78.208 158.464a128 128 0 0 0 229.504 0l78.208-158.464 174.848-25.408a128 128 0 0 0 70.976-218.304l-126.528-123.328 29.824-174.144a128 128 0 0 0-185.728-134.912L512-8.319999990000042l-156.352-82.176z m372.288 113.28l-41.216 240.448 174.72 170.24-241.472 35.2L512 687.36000001 404.032 468.60800001l-241.408-35.072 174.72-170.24-41.28-240.512L512 136.32000000999994l215.936-113.536z"  horiz-adv-x="1024" />

    
    <glyph glyph-name="_list" unicode="&#58984;" d="M192 768h640a64 64 0 0 0 0-128H192a64 64 0 1 0 0 128z m0-320h640a64 64 0 0 0 0-128H192a64 64 0 1 0 0 128z m0-320h640a64 64 0 0 0 0-128H192a64 64 0 0 0 0 128z"  horiz-adv-x="1024" />

    
    <glyph glyph-name="_check1" unicode="&#58975;" d="M867.556 550.116a42.44 42.44 0 0 0-12.8-31.176L522.524 186.71000000000004l-62.464-62.465a42.61 42.61 0 0 0-31.175-12.8 42.44 42.44 0 0 0-31.175 12.8l-62.52 62.521-165.946 166.059a42.61 42.61 0 0 0-12.8 31.175c0 12.288 4.267 22.642 12.8 31.175l62.464 62.521a42.61 42.61 0 0 0 31.232 12.8c12.288 0 22.642-4.267 31.176-12.8l134.826-135.452L729.884 643.64a42.61 42.61 0 0 0 31.176 12.8c12.288 0 22.698-4.267 31.232-12.8l62.464-62.464a42.382 42.382 0 0 0 12.8-31.061z"  horiz-adv-x="1024" />

    
    <glyph glyph-name="_play" unicode="&#58977;" d="M64 896h896a64 64 0 0 0 64-64v-896a64 64 0 0 0-64-64H64a64 64 0 0 0-64 64V832a64 64 0 0 0 64 64z m64-128v-768h768V768H128zM363.072 687.36l427.456-245.312c11.456-5.376 21.44-14.144 28.224-25.984l0.064-0.064a63.616 63.616 0 0 0 0-64l-0.064-0.128a63.68 63.68 0 0 0-27.84-25.792l-430.272-247.552A64 64 0 0 0 256 128V640a64 64 0 0 0 107.072 47.36z"  horiz-adv-x="1024" />

    
    <glyph glyph-name="_tag_percent3" unicode="&#58978;" d="M128 384h384V768a384 384 0 0 1-384-384z m384-512A512 512 0 1 0 512 896a512 512 0 0 0 0-1024z"  horiz-adv-x="1024" />

    
    <glyph glyph-name="_demo_course" unicode="&#58985;" d="M512-64A448 448 0 1 1 512 832a448 448 0 0 1 0-896z m0 64A384 384 0 1 0 512 768a384 384 0 0 0 0-768zM524.544 651.7760000000001c45.76 0 83.072-11.968 111.232-37.312 28.16-24.64 42.24-58.432 42.24-101.376 0-35.2-9.152-64.064-26.048-86.592-6.336-7.04-26.752-26.048-60.544-55.68a109.12 109.12 0 0 1-28.16-35.2c-7.04-14.08-10.56-28.8-10.56-45.696v-9.856H471.744V289.91999999999996c0 26.752 4.224 49.92 14.08 68.992 9.152 19.008 36.608 48.576 82.368 89.408l8.448 9.856c12.672 15.488 19.008 32.384 19.008 49.92 0 23.296-7.04 41.6-19.712 54.976-13.376 13.376-32.384 19.712-56.32 19.712-30.976 0-52.8-9.152-66.176-28.864-11.968-16.192-17.6-39.424-17.6-68.992H355.584c0 52.096 14.784 92.928 45.76 122.496 30.272 29.568 71.104 44.352 123.2 44.352z m-12.672-406.208c15.488 0 28.864-4.928 39.424-14.784a51.968 51.968 0 0 0 15.488-38.016 51.52 51.52 0 0 0-16.192-38.72 54.272 54.272 0 0 0-38.72-14.784 54.848 54.848 0 0 0-38.72 15.488 49.408 49.408 0 0 0-15.488 38.016c0 15.488 4.928 28.16 15.488 38.016a54.272 54.272 0 0 0 38.72 14.72z"  horiz-adv-x="1024" />

    
    <glyph glyph-name="_back" unicode="&#58986;" d="M360.704 512H576a192 192 0 1 0 0-384 64 64 0 0 1 0-128A320 320 0 0 1 576 640H365.248l24.256 24.256a64 64 0 0 1-90.496 90.496L163.2 619.008a64 64 0 0 1 0-90.56l135.808-135.744A64 64 0 0 1 389.504 483.2L360.704 512z"  horiz-adv-x="1024" />

    
    <glyph glyph-name="_forward" unicode="&#58987;" d="M663.296 512H448a192 192 0 1 1 0-384 64 64 0 0 0 0-128A320 320 0 0 0 448 640h210.752l-24.256 24.256a64 64 0 0 0 90.496 90.496l135.808-135.744a63.808 63.808 0 0 0 0-90.56l-135.808-135.744A64 64 0 1 0 634.496 483.2l28.8 28.8z"  horiz-adv-x="1024" />

    
    <glyph glyph-name="_align_auto_flow" unicode="&#58899;" d="M448 832h128a64 64 0 0 0 64-64v-256a64 64 0 0 0-64-64H448a64 64 0 0 0-64 64V768a64 64 0 0 0 64 64z m0-512h128a64 64 0 0 0 64-64v-256a64 64 0 0 0-64-64H448a64 64 0 0 0-64 64v256a64 64 0 0 0 64 64z m320 512h128a64 64 0 0 0 64-64v-256a64 64 0 0 0-64-64h-128a64 64 0 0 0-64 64V768a64 64 0 0 0 64 64z m0-512h128a64 64 0 0 0 64-64v-256a64 64 0 0 0-64-64h-128a64 64 0 0 0-64 64v256a64 64 0 0 0 64 64zM128 832h128a64 64 0 0 0 64-64v-256a64 64 0 0 0-64-64H128a64 64 0 0 0-64 64V768a64 64 0 0 0 64 64z m0-512h128a64 64 0 0 0 64-64v-256a64 64 0 0 0-64-64H128a64 64 0 0 0-64 64v256a64 64 0 0 0 64 64z"  horiz-adv-x="1024" />

    
    <glyph glyph-name="_info_file" unicode="&#58998;" d="M823.424 607.36c5.504-6.08 8.576-14.144 8.576-22.656V-32c0-17.728-12.992-32-29.12-32h-581.76C204.992-64 192-49.728 192-32v832c0 17.728 12.992 32 29.12 32h386.048c7.744 0 15.168-3.392 20.672-9.408l195.584-215.296zM768 576L576 768v-192h192z"  horiz-adv-x="1024" />

    
    <glyph glyph-name="_info_image" unicode="&#58999;" d="M928 768h-832c-17.728 0-32-15.616-32-34.88v-698.24c0-19.264 14.272-34.88 32-34.88h832c17.728 0 32 15.616 32 34.88V733.12c0 19.264-14.272 34.88-32 34.88zM320 576a64 64 0 0 0 0-128 64 64 0 0 0 0 128z m573.056-382.336a9.152 9.152 0 0 0-5.376-1.664H200.192c-4.48 0-8.192 3.2-8.192 7.104 0 1.728 0.704 3.328 1.92 4.672l174.912 179.84a9.152 9.152 0 0 0 11.584 0.832l1.024-0.832 102.08-105.088 162.368 166.912a9.152 9.152 0 0 0 11.584 0.896c0.32-0.256 0.704-0.512 1.024-0.896l235.776-241.792a6.592 6.592 0 0 0-1.28-9.984z"  horiz-adv-x="1024" />

    
    <glyph glyph-name="_info_massages" unicode="&#59000;" d="M924.288 557.632a449.92 449.92 0 0 0 34.816-175.616 448.64 448.64 0 0 0-35.84-174.528 444.8 444.8 0 0 0-96.256-142.016 443.2 443.2 0 0 0-142.528-95.168A446.336 446.336 0 0 0 512.192-64H510.08a447.744 447.744 0 0 0-199.488 48H158.784a46.016 46.016 0 0 0-45.888 46.016v152A450.624 450.624 0 0 0 99.2 556.8a444.992 444.992 0 0 0 94.976 142.784A444.992 444.992 0 0 0 509.952 832H512c60.16 0 118.272-11.712 173.184-34.816a447.552 447.552 0 0 0 239.104-239.616zM256 320a64 64 0 1 1 0.064 127.936A64 64 0 0 1 256 320z m256 0a64 64 0 1 1-0.128 128.128A64 64 0 0 1 512 320z m256 0a64 64 0 1 1-0.128 128.128A64 64 0 0 1 768 320z"  horiz-adv-x="1024" />

    
    <glyph glyph-name="_info_bell" unicode="&#59001;" d="M801.536 123.328h-22.848v346.24c0 143.616-99.328 262.4-228.608 282.24v39.488C550.08 813.76 533.12 832 512 832c-21.056 0-38.08-18.24-38.08-40.704v-39.552c-129.28-19.712-228.608-138.56-228.608-282.24v-346.176h-22.848c-16.832 0-30.464-14.528-30.464-32.576v-32.576c0-4.48 3.456-8.128 7.616-8.128h205.696C405.312-12.864 453.12-64 512-64s106.688 51.136 106.688 114.048h205.696c4.16 0 7.616 3.648 7.616 8.128v32.64c0 17.92-13.632 32.512-30.464 32.512zM512 8a48 48 0 0 0-48 48h96a48 48 0 0 0-48-48z"  horiz-adv-x="1024" />

    
    <glyph glyph-name="_pageturning_right" unicode="&#59002;" d="M668.03199966 384l-271.530666-271.530667a42.666667 42.666667 0 0 1 60.330666-60.330666l301.696 301.653333a42.538667 42.538667 0 0 1 0 60.373333l-301.653333 301.696a42.666667 42.666667 0 0 1-60.373333-60.330666L668.03199966 384z"  horiz-adv-x="1024" />

    
    <glyph glyph-name="_pageturning_left" unicode="&#59003;" d="M355.96800034 384l271.530666-271.530667a42.666667 42.666667 0 0 0-60.330666-60.330666l-301.696 301.653333a42.538667 42.538667 0 0 0 0 60.373333l301.653333 301.696a42.666667 42.666667 0 0 0 60.373333-60.330666L355.96800034 384z"  horiz-adv-x="1024" />

    
    <glyph glyph-name="_postil_dialog1" unicode="&#58988;" d="M167.296 97.79200000000003A448 448 0 1 0 262.4 11.967999999999961a65.024 65.024 0 0 0-2.432-2.56l-45.248-45.312a64 64 0 1 0-90.56 90.56l43.2 43.136zM512 64A320 320 0 1 1 512 704a320 320 0 0 1 0-640zM384 320a64 64 0 1 0 0 128 64 64 0 0 0 0-128z m256 0a64 64 0 1 0 0 128 64 64 0 0 0 0-128z"  horiz-adv-x="1024" />

    
    <glyph glyph-name="_postil_font" unicode="&#58994;" d="M321.6 128l-48.128-104.064a63.808 63.808 0 0 0-84.864-31.04l-0.192 0.064a64 64 0 0 0-31.04 84.864L470.656 755.328a64.32 64.32 0 0 0 65.28 55.616 63.552 63.552 0 0 0 28.16-6.016l0.192-0.064a64 64 0 0 0 36.352-49.28l314.88-677.696a64 64 0 0 0-31.04-84.928l-0.128-0.128a63.936 63.936 0 0 0-84.928 31.04L751.104 128h-429.44z m59.2 128h310.784L535.808 591.36 380.8 256z"  horiz-adv-x="1024" />

    
    <glyph glyph-name="_location_specs" unicode="&#58974;" d="M512 896a64 64 0 0 0 64-64v-192a64 64 0 1 0-128 0V832a64 64 0 0 0 64 64zM448 512h128a64 64 0 0 0 64-64v-128a64 64 0 0 0-64-64H448a64 64 0 0 0-64 64V448a64 64 0 0 0 64 64z m64-320a64 64 0 0 0 64-64v-192a64 64 0 0 0-128 0v192a64 64 0 0 0 64 64zM64 448h192a64 64 0 1 0 0-128H64a64 64 0 1 0 0 128z m704 0h192a64 64 0 0 0 0-128h-192a64 64 0 0 0 0 128z"  horiz-adv-x="1024" />

    
    <glyph glyph-name="_colors_specs" unicode="&#58995;" d="M738.304 429.248l45.248-45.248a64 64 0 1 0-90.56-90.496l-45.248 45.248L376.32 67.20000000000005A128 128 0 1 0 195.2 248.32000000000005L466.752 519.6800000000001l-45.248 45.248A64 64 0 1 0 512 655.552l45.248-45.248 90.496 90.496A128 128 0 1 0 828.8 519.6800000000001l-90.496-90.496z"  horiz-adv-x="1024" />

    
    <glyph glyph-name="_distance_specs" unicode="&#58989;" d="M512 564.992l-45.248-45.248 45.248-45.248A64 64 0 1 0 421.504 384l-45.248 45.248L331.008 384l45.248-45.248a64 64 0 1 0-90.56-90.496l-45.248 45.248-45.248-45.248L376.32 67.20000000000005l452.48 452.544-180.992 181.056-45.248-45.248 45.248-45.248A64 64 0 0 0 557.248 519.6800000000001L512 564.992zM59.456 293.504L602.496 836.48a64 64 0 0 0 90.496 0l271.552-271.552a64 64 0 0 0 0-90.496L421.504-68.48000000000002a64 64 0 0 0-90.496 0L59.456 203.00800000000004a64 64 0 0 0 0 90.496z"  horiz-adv-x="1024" />

    
    <glyph glyph-name="_postil_circle1" unicode="&#58990;" d="M512-64A448 448 0 1 1 512 832a448 448 0 0 1 0-896z m0 128A320 320 0 1 0 512 704a320 320 0 0 0 0-640z"  horiz-adv-x="1024" />

    
    <glyph glyph-name="_postil_box1" unicode="&#58991;" d="M192 768h640a64 64 0 0 0 64-64v-640a64 64 0 0 0-64-64H192a64 64 0 0 0-64 64V704a64 64 0 0 0 64 64z m64-128v-512h512V640H256z"  horiz-adv-x="1024" />

    
    <glyph glyph-name="_postil_line" unicode="&#58992;" d="M783.529004 746.038672m45.254834-45.254834l0 0q45.254834-45.254834 0-90.509668l-543.058008-543.058008q-45.254834-45.254834-90.509668 0l0 0q-45.254834 45.254834 0 90.509668l543.058008 543.058008q45.254834 45.254834 90.509668 0Z"  horiz-adv-x="1024" />

    
    <glyph glyph-name="_archive" unicode="&#58993;" d="M1019.86816 342.72A63.68 63.68 0 0 0 1024.02816 323.84000000000003a48.64 48.64 0 0 0 0-12.16V-64a64 64 0 0 0-64-64H64.02816a64 64 0 0 0-64 64V320a65.152 65.152 0 0 0 0 3.84c0 23.552 40.32 152.96 120.96 388.096A64 64 0 0 0 184.60416 768H320.02816v-128H241.05216l-96-256h733.952l-96 256H704.02816V768h135.488a64 64 0 0 0 63.488-56.064c65.536-198.4 104.512-321.408 116.864-369.216zM896.02816 256H128.02816v-256h768v256z m-448-64h128a64 64 0 0 0 0-128H448.02816a64 64 0 0 0 0 128z m128 442.24a64 64 0 0 0 71.744-103.488L557.27616 440.256a63.808 63.808 0 0 0-90.496 0L376.28416 530.752A64 64 0 0 0 448.02816 634.24V832a64 64 0 1 0 128 0v-197.76z"  horiz-adv-x="1024" />

    
    <glyph glyph-name="_postil_arrow" unicode="&#58996;" d="M613.504 576H576a64 64 0 1 0 0 128h192a63.808 63.808 0 0 0 64-64v-192a64 64 0 0 0-128 0v37.504L285.696 67.20000000000005a64 64 0 1 0-90.496 90.496L613.504 576z"  horiz-adv-x="1024" />

    
    <glyph glyph-name="_icon_magnifier" unicode="&#59004;" d="M734.20064 103.28833899999995a447.98516 447.98516 0 1 0 85.885155 95.100849l125.051857-125.051857a63.99788 63.99788 0 0 0-90.493002-90.493003l-120.44401 120.444011zM448.00212 127.99152000000004A319.9894 319.9894 0 1 1 448.00212 767.970321a319.9894 319.9894 0 0 1 0-639.978801z m63.99788 383.987281h127.99576a63.99788 63.99788 0 0 0 0-127.99576H512v-127.995761a63.99788 63.99788 0 0 0-127.99576 0V383.98304099999996H256.00848a63.99788 63.99788 0 1 0 0 127.99576h127.99576V639.974561a63.99788 63.99788 0 1 0 127.99576 0v-127.99576z"  horiz-adv-x="1024" />

    
    <glyph glyph-name="_Api" unicode="&#59005;" d="M154.848-12.48l-45.248-45.216A32 32 0 1 0 64.32-12.48l45.28 45.248a224 224 0 0 0 0 316.8l135.744 135.744a32 32 0 0 0 45.248 0l45.28-45.248 45.248 45.248a32 32 0 1 0 45.248-45.248l-45.248-45.248 135.776-135.776 45.248 45.248a32 32 0 1 0 45.248-45.248l-45.248-45.248 45.248-45.248a32 32 0 0 0 0-45.248l-135.776-135.776a224 224 0 0 0-316.8 0z m384.64 158.4l-271.52 271.552L154.88 304.32a160 160 0 0 1 0-226.24l45.248-45.28a160 160 0 0 1 226.272 0l113.152 113.152zM910.272 739.392a224 224 0 0 0 0-316.8l-135.744-135.744a32 32 0 0 0-45.248 0l-316.8 316.8a32 32 0 0 0 0 45.216l135.776 135.776a224 224 0 0 0 316.8 0l45.216 45.248A32 32 0 0 0 955.52 784.64l-45.28-45.248zM480.32 626.208l271.552-271.52 113.12 113.152a160 160 0 0 1 0 226.24l-45.248 45.28a160 160 0 0 1-226.272 0L480.32 626.208z"  horiz-adv-x="1024" />

    
    <glyph glyph-name="_App_Store" unicode="&#59006;" d="M96 800v-320h320V800H96z m-4.256 64h328.512C453.248 864 480 837.248 480 804.256v-328.512C480 442.752 453.248 416 420.256 416H91.744A59.744 59.744 0 0 0 32 475.744V804.256C32 837.248 58.752 864 91.744 864zM608 800v-320h320V800H608z m-4.256 64h328.512C965.248 864 992 837.248 992 804.256v-328.512C992 442.752 965.248 416 932.256 416H603.744A59.744 59.744 0 0 0 544 475.744V804.256C544 837.248 570.752 864 603.744 864zM608 288v-320h320V288H608z m-4.256 64h328.512c32.992 0 59.744-26.752 59.744-59.744v-328.512C992-69.248 965.248-96 932.256-96H603.744A59.744 59.744 0 0 0 544-36.256V292.256c0 32.992 26.752 59.744 59.744 59.744zM96 288v-320h320V288H96z m-4.256 64h328.512c32.992 0 59.744-26.752 59.744-59.744v-328.512C480-69.248 453.248-96 420.256-96H91.744A59.744 59.744 0 0 0 32-36.256V292.256C32 325.248 58.752 352 91.744 352z"  horiz-adv-x="1024" />

    
    <glyph glyph-name="_android" unicode="&#59007;" d="M672 64h32a32 32 0 0 1 32 32V576h-32 29.76a224.064 224.064 0 0 1-443.52 0H320 256v-442.56A96 96 0 0 0 128 224v288a64 64 0 0 0 64 64h33.76a287.424 287.424 0 0 0 97.12 185.216L288 796.096a32 32 0 0 0 45.248 45.28l43.2-43.2A286.72 286.72 0 0 0 512 832c47.552 0 92.416-11.52 131.936-31.936l41.312 41.28a32 32 0 1 0 45.248-45.216l-32.32-32.352A287.488 287.488 0 0 0 798.208 576H832a64 64 0 0 0 64-64v-288a96 96 0 0 0-128-90.56V96c0-30.304-12.48-57.344-32-74.944V-32a96 96 0 0 0-192 0v32h-64v-32a96 96 0 0 0-192 0v53.056c-19.52 17.6-32 44.64-32 74.944a32 32 0 0 1 32-32h64v-96a32 32 0 0 1 64 0v96h192v-96a32 32 0 0 1 64 0v96zM341.344 576h341.312-341.312zM768 480v-256a32 32 0 0 1 64 0v288h-64v-32zM256 480v32H192v-288a32 32 0 0 1 64 0v256z m160 160h32v-64h-32V640z m160 0h32v-64h-32V640zM256 96V541.728H224V576h576v-34.272H288v-447.872c0-16.48 14.336-29.856 32-29.856h384c17.664 0 32 13.376 32 29.856V96h32v-3.776c0-33.28-28.64-60.224-64-60.224H320c-35.36 0-64 26.976-64 60.224V96z"  horiz-adv-x="1024" />

    
    <glyph glyph-name="_Desktop" unicode="&#59008;" d="M480-32v128H56.896A56.608 56.608 0 0 0 0 152.32V743.68C0 774.784 25.472 800 56.896 800h910.208C998.528 800 1024 774.784 1024 743.68v-591.36c0-31.104-25.472-56.32-56.896-56.32H544v-128h224a32 32 0 1 0 0-64H256a32 32 0 1 0 0 64h224z m0 192h480V736H64v-576h416z"  horiz-adv-x="1024" />

    
    <glyph glyph-name="_Bulb" unicode="&#59009;" d="M640 228.096l16 9.664c88.416 53.376 144 151.776 144 260.32V531.52C800 697.44 671.04 832 512 832s-288-134.56-288-300.512v-33.408c0-108.544 55.584-206.944 144-260.32l16-9.664V64h256v164.096z m64-161.728C704 29.76 675.36 0 640 0h-256c-35.36 0-64 29.728-64 66.368v125.408c-98.688 66.656-160 180.8-160 306.016v33.184C160 732.576 317.6 896 512 896s352-163.424 352-365.024v-33.184c0-125.216-61.312-239.36-160-306.016v-125.408zM384-64h256a32 32 0 1 0 0-64h-256a32 32 0 1 0 0 64z"  horiz-adv-x="1024" />

    
    <glyph glyph-name="_Check_Circle" unicode="&#59010;" d="M512-128C229.216-128 0 101.216 0 384S229.216 896 512 896s512-229.216 512-512-229.216-512-512-512z m0 64c247.424 0 448 200.576 448 448S759.424 832 512 832 64 631.424 64 384s200.576-448 448-448z m-42.976 315.456l282.848 282.848a16 16 0 0 0 22.624-22.624l-294.176-294.176a16 16 0 0 0-22.624 0l-158.4 158.4a16 16 0 1 0 22.656 22.624l147.072-147.072z"  horiz-adv-x="1024" />

    
    <glyph glyph-name="_Eye" unicode="&#59011;" d="M508.128 64a464.256 464.256 0 0 1 441.248 320A464.256 464.256 0 0 1 66.88 384 464.256 464.256 0 0 1 508.16 64z m0 704c241.696 0 445.44-162.368 508.128-384-62.688-221.632-266.432-384-508.16-384C266.464 0 62.688 162.368 0 384 62.688 605.632 266.432 768 508.128 768zM512 224a160 160 0 1 1 0 320 160 160 0 0 1 0-320z m0-32a192 192 0 1 0 0 384 192 192 0 0 0 0-384z"  horiz-adv-x="1024" />

    
    <glyph glyph-name="_Folder" unicode="&#59012;" d="M480 672h463.168C990.304 672 1024 624.096 1024 578.144V51.2c0-45.952-38.208-83.2-85.344-83.2H85.344C38.208-32 0 5.248 0 51.2V578.144c0 4.672 0.384 9.28 1.184 13.856A81.536 81.536 0 0 0 0 605.856V716.8C0 762.752 38.208 800 85.344 800h287.616c33.6 0 64.064-19.2 77.824-49.088L480 672z m-32-63.808l-47.36 111.84A28.064 28.064 0 0 1 375.136 736H92C76.544 736 64 723.872 64 708.928v-108.32c0-2.336 0.32-4.608 0.896-6.784l1.792-6.72-1.792-6.784a26.336 26.336 0 0 1-0.896-6.784v-514.464c0-14.944 12.544-27.072 28-27.072h840c15.456 0 28 12.128 28 27.072V573.536c0 14.944-16.544 34.656-32 34.656H448z"  horiz-adv-x="1024" />

    
    <glyph glyph-name="_Mobile" unicode="&#59014;" d="M640 832a32 32 0 0 0-32-32h-192a32 32 0 0 0-32 32h-46.208C310.272 832 288 805.248 288 772.256v-776.512C288-37.248 310.272-64 337.792-64h348.416c27.52 0 49.792 26.752 49.792 59.744V772.256C736 805.248 713.728 832 686.208 832H640z m-311.264 64h366.528C753.12 896 800 842.048 800 775.52v-783.04C800-74.08 753.12-128 695.264-128H328.736C270.88-128 224-74.048 224-7.52V775.52C224 842.08 270.88 896 328.736 896z"  horiz-adv-x="1024" />

    
    <glyph glyph-name="_Image" unicode="&#59015;" d="M64 281.088l152.32 188.8 234.496-276.32L739.52 576 960 307.2V704H64v-422.912z m0-48.384V64h896v195.264l-219.552 267.68-288.32-381.92-235.264 277.184L64 232.704zM32 768h960c17.664 0 32-13.216 32-29.536v-708.928c0-16.32-14.336-29.536-32-29.536H32c-17.664 0-32 13.216-32 29.536V738.464C0 754.784 14.336 768 32 768z m368-352a112 112 0 1 0 0 224 112 112 0 0 0 0-224z m0 32a80 80 0 1 1 0 160 80 80 0 0 1 0-160z"  horiz-adv-x="1024" />

    
    <glyph glyph-name="_Message" unicode="&#59016;" d="M272.38464 0a32 32 0 0 0 16-4.288A445.76 445.76 0 0 1 512.00064-64c247.424 0 448 200.576 448 448S759.42464 832 512.00064 832 64.00064 631.424 64.00064 384c0-79.68 20.8-156.192 59.712-223.616a32 32 0 0 0 4.288-16V0h144.384zM128.00064-64a64 64 0 0 0-64 64v135.936A509.76 509.76 0 0 0 0.00064 384C0.00064 666.784 229.21664 896 512.00064 896s512-229.216 512-512-229.216-512-512-512c-88 0-172.8 22.24-248.064 64H128.00064z m160 416a32 32 0 1 0 0 64 32 32 0 0 0 0-64z m224 0a32 32 0 1 0 0 64 32 32 0 0 0 0-64z m224 0a32 32 0 1 0 0 64 32 32 0 0 0 0-64z"  horiz-adv-x="1024" />

    
    <glyph glyph-name="_Laptop" unicode="&#59018;" d="M160 256h704v32H160v-32z m767.168-9.024c3.616-3.52 6.432-7.872 8.128-12.896l74.4-224A32 32 0 0 0 979.36-32H44.384a32 32 0 0 0-30.336 42.112l74.656 224a31.936 31.936 0 0 0 8.128 12.896A32.16 32.16 0 0 0 96 254.304V769.696C96 787.104 109.312 800 128 800h768c18.688 0 32-12.896 32-30.304v-515.392c0-2.56-0.288-4.992-0.832-7.328z m-54.72-22.976H151.616l-9.536-32h739.488l-9.12 32z m-783.68-192h846.208l-53.152 160H142.144l-53.344-160z m256.064 96l-16.352-64h334.528l-16 64h-302.176z m0 32h302.176a32 32 0 0 0 31.04-24.224l16-64A32 32 0 0 0 663.04 32H328.48a32 32 0 0 0-31.04 39.936l16.416 64a32 32 0 0 0 30.976 24.064zM160 736v-448h704V736H160z"  horiz-adv-x="1024" />

    
    <glyph glyph-name="_User" unicode="&#59019;" d="M364.16 360.8a288 288 0 1 0 295.68 0C852.608 298.464 992 117.504 992-96a32 32 0 0 0-32-32H64a32 32 0 0 0-32 32c0 213.504 139.392 394.464 332.16 456.8zM97.216-64h829.568c-16.32 214.784-195.808 384-414.784 384S113.568 150.784 97.216-64zM512 384a224 224 0 1 1 0 448 224 224 0 0 1 0-448z"  horiz-adv-x="1024" />

    
    <glyph glyph-name="_Bell" unicode="&#59020;" d="M480 798.4V864a32 32 0 1 0 64 0v-65.6c161.696-16.032 288-152.48 288-318.4v-416h64a32 32 0 1 0 0-64h-256a128 128 0 1 0-256 0H128a32 32 0 1 0 0 64h64V480c0 165.92 126.304 302.368 288 318.4zM256 64h512V480a256 256 0 1 1-512 0v-416z m192-64a64 64 0 0 1 128 0h-128z"  horiz-adv-x="1024" />

    
    <glyph glyph-name="_Smile" unicode="&#59021;" d="M512-128C229.216-128 0 101.216 0 384S229.216 896 512 896s512-229.216 512-512-229.216-512-512-512z m0 64c247.424 0 448 200.576 448 448S759.424 832 512 832 64 631.424 64 384s200.576-448 448-448z m-192 512a32 32 0 1 0 0 64 32 32 0 0 0 0-64z m-16-96a16 16 0 0 0 32 0 176 176 0 0 1 352 0 16 16 0 0 0 32 0 208 208 0 1 0-416 0zM704 448a32 32 0 1 0 0 64 32 32 0 0 0 0-64z"  horiz-adv-x="1024" />

    
    <glyph glyph-name="_Star" unicode="&#59022;" d="M496 110.112L762.976-32l-50.976 301.024L928 482.208l-298.496 43.904L496 800l-133.504-273.888L64 482.24l216-213.184L229.024-32l266.976 142.112z m0-73.472l-235.2-124.992a65.504 65.504 0 0 0-88.96 27.936 67.168 67.168 0 0 0-6.592 42.24l44.928 264.672-190.304 187.456a67.04 67.04 0 0 0-1.184 94.08 65.6 65.6 0 0 0 37.664 19.424L319.36 586.048l117.6 240.864a65.504 65.504 0 0 0 118.08 0l117.6-240.864 262.976-38.592a66.432 66.432 0 0 0 55.68-75.424c-2.08-14.464-8.832-27.84-19.2-38.08l-190.272-187.456 44.928-264.704a66.464 66.464 0 0 0-53.76-76.8 65.216 65.216 0 0 0-41.792 6.656l-235.2 124.992z"  horiz-adv-x="1024" />

    
    <glyph glyph-name="_Setting" unicode="&#59023;" d="M76.032 524.864l92.288-53.28-5.44-42.24a356 356 0 0 1 0-90.656l5.44-42.24-92.288-53.312 96-166.272 92.384 53.344 33.92-25.952a351.552 351.552 0 0 1 78.304-45.312l39.36-16.416V-64h192v106.56l39.36 16.384c27.968 11.648 54.272 26.88 78.336 45.312l33.92 25.92 92.352-53.312 96 166.272-92.288 53.28 5.44 42.24a356 356 0 0 1 0 90.656l-5.44 42.24 92.288 53.312-96 166.272-92.384-53.344-33.92 25.952a351.552 351.552 0 0 1-78.304 45.312L608 725.44V832h-192v-106.56l-39.36-16.384c-27.968-11.648-54.272-26.88-78.336-45.312l-33.92-25.92-92.352 53.312-96-166.272zM352 768.128V864a32 32 0 0 0 32 32h256a32 32 0 0 0 32-32v-95.872c33.28-13.888 64.32-31.936 92.576-53.568l83.104 48a32 32 0 0 0 43.712-11.712l128-221.696a32 32 0 0 0-11.712-43.712l-83.072-48a419.968 419.968 0 0 0 0-106.88l83.072-48a32 32 0 0 0 11.712-43.712l-128-221.696a32 32 0 0 0-43.712-11.712l-83.104 48A415.552 415.552 0 0 0 672-0.128V-96a32 32 0 0 0-32-32h-256a32 32 0 0 0-32 32v95.872a415.552 415.552 0 0 0-92.576 53.568l-83.104-48a32 32 0 0 0-43.712 11.712l-128 221.696A32 32 0 0 0 16.32 282.56l83.072 48a419.968 419.968 0 0 0 0 106.88L16.32 485.44a32 32 0 0 0-11.712 43.712l128 221.696A32 32 0 0 0 176.32 762.56l83.104-48A415.552 415.552 0 0 0 352 768.128zM512 224a160 160 0 1 1 0 320 160 160 0 0 1 0-320z m0-32a192 192 0 1 0 0 384 192 192 0 0 0 0-384z"  horiz-adv-x="1024" />

    
    <glyph glyph-name="_Cloud" unicode="&#59028;" d="M666.24 97.184C813.888 110.464 928 234.688 928 384a288 288 0 0 1-530.944 154.752l-22.208-34.784-40.864 5.888a208 208 0 0 1-42.304-413.504l6.144-0.352h355.36l13.056 1.184zM672 32H288v0.448a272 272 0 1 0 55.136 540.768A351.744 351.744 0 0 0 640 736c194.4 0 352-157.6 352-352 0-183.616-140.608-334.4-320-350.56V32z"  horiz-adv-x="1024" />

    
    <glyph glyph-name="_Apple" unicode="&#59013;" d="M748.128 503.36c-29.792 25.984-65.184 40.64-98.368 40.64-24.832 0-42.56-4.128-70.08-14.4-11.584-4.416-17.824-6.752-24.032-8.864-18.816-6.4-34.816-9.632-52.576-9.632-19.328 0-37.056 3.584-58.88 10.752-5.824 1.92-4.896 1.6-21.536 7.52-30.08 10.72-46.144 14.592-66.784 14.592-48.704 0-101.024-31.04-134.368-82.304C170.56 383.168 185.216 233.408 265.6 111.104c39.776-60.576 72.48-90.496 105.76-90.816 12.32-0.096 21.216 2.176 35.84 8.512l11.296 4.992c29.28 12.928 51.68 18.784 85.12 18.944 33.952 0.192 56.384-5.696 85.76-19.04l10.176-4.64c14.528-6.496 23.104-8.768 35.296-8.64 32.288 0.32 66.048 32.64 108.16 96.768 15.04 22.88 23.04 36.64 34.304 60.224-118.176 68.576-134.464 238.048-29.184 325.952z m100.64-323.872c-20.992-46.496-30.016-63.584-52.288-97.44-53.76-81.984-98.784-125.024-161.024-125.664-22.848-0.192-39.84 4.32-62.016 14.24l-10.528 4.8c-21.632 9.824-35.424 13.44-58.976 13.312-23.488-0.128-37.728-3.84-59.616-13.504l-11.68-5.152c-22.144-9.6-39.232-13.984-61.856-13.76-62.4 0.544-107.68 41.984-158.688 119.616-93.248 141.92-110.528 318.528-44.256 420.576C212.512 565.28 284.544 608 355.872 608c29.76 0 51.744-5.312 88.224-18.272 15.84-5.664 15.008-5.344 20.096-7.04 15.904-5.216 27.456-7.552 38.88-7.552 9.824 0 19.264 1.92 31.968 6.208 5.12 1.76 10.304 3.712 22.208 8.192C591.328 602.272 615.936 608 649.728 608c63.072 0 127.36-33.696 172.416-89.76a32 32 0 0 0-9.568-48.096c-103.104-56.48-89.792-206.688 18.336-247.552a32 32 0 0 0 17.856-43.104zM608.224 730.24c15.968 18.496 27.168 40.288 32.096 62.176-22.72-8.352-45.504-22.88-60.832-40-16.224-17.984-28.128-40.32-33.024-61.984a131.872 131.872 0 0 1 61.76 39.808zM481.28 650.624c-6.912 50.336 14.784 104.896 50.592 144.608 34.784 38.816 91.936 66.88 141.248 68.736a32 32 0 0 0 32.96-28.288c6.016-51.744-13.568-105.664-49.472-147.296-36.704-42.24-92.768-69.248-145.984-65.28a32 32 0 0 0-29.344 27.52z"  horiz-adv-x="1024" />

    
    <glyph glyph-name="_Earth" unicode="&#59017;" d="M288.732752 416.225557a699.864127 699.864127 0 0 0 37.887574 197.981773 527.802062 527.802062 0 0 0-137.502454 80.319097 446.394978 446.394978 0 0 1-123.966605-277.980873l223.581485-0.319997zM287.99676 383.07393l-223.99748 0.319997a446.490977 446.490977 0 0 1 125.118592-309.948513 527.802062 527.802062 0 0 0 137.502454 80.351096A701.112112 701.112112 0 0 0 287.99676 383.07393z m223.99748-223.325487v-223.485486c2.559971-0.095999 5.119942-0.159998 7.743913-0.191998 3.903956 0.063999 7.775913 0.191998 11.647869 0.319997a673.78442 673.78442 0 0 1 126.622575 207.03767 514.170216 514.170216 0 0 1-146.014357 16.319817z m-31.99964-1.951978c-38.079572-3.51996-75.199154-11.231874-110.718754-22.815744 26.6877-66.62325 63.99928-128.702552 110.718754-184.061929v206.877673z m255.293128 257.821099l223.613484-0.319996a446.138981 446.138981 0 0 1-110.718754 264.797021 530.234035 530.234035 0 0 0-147.294343-76.287142 700.120124 700.120124 0 0 0 34.399613-188.189883zM735.99172 382.401938a701.400109 701.400109 0 0 0-35.103605-218.237545 530.234035 530.234035 0 0 0 147.294343-76.287142A446.266979 446.266979 0 0 1 959.9892 382.081942l-223.99748 0.319996z m-223.99748 225.821459a514.170216 514.170216 0 0 1 146.014357 16.351817 673.78442 673.78442 0 0 1-126.622575 206.973671 454.938882 454.938882 0 0 1-11.647869 0.351996c-2.591971-0.032-5.183942-0.095999-7.743913-0.191998v-223.485486z m-31.99964 1.951979V817.085048a673.336425 673.336425 0 0 1-110.718754-184.06193c35.5196-11.58387 72.639183-19.263783 110.718754-22.815743z m0 284.796796A519.546155 519.546155 0 0 0 515.194204 895.99616C796.47104 894.268179 1023.98848 665.694751 1023.98848 384.00192s-227.51744-510.26626-508.794276-511.99424h-0.799991a522.746119 522.746119 0 0 0-5.599937 0C227.51744-126.26434 0 102.309089 0 384.00192 0 655.99886 212.157613 878.492357 479.9946 895.036171V895.99616h31.99964v-64.255277z m222.525497-512.506235L511.99424 382.721934v-190.973851a548.793826 548.793826 0 0 0 156.862235-18.015797 669.752465 669.752465 0 0 1 33.663622 208.733651z m-0.735992 33.151627a668.760476 668.760476 0 0 1-32.959629 178.589991A548.793826 548.793826 0 0 0 511.99424 576.223757v-160.318196l189.789865-0.255997zM479.9946 578.079737a543.513885 543.513885 0 0 0-121.918628 24.767721 668.568479 668.568479 0 0 1-35.839597-186.6539l157.758225-0.223998V578.079737z m-158.558216-195.037806c0.127999-75.391152 12.767856-148.798326 36.607588-217.885549A543.513885 543.513885 0 0 0 479.9946 189.924103v192.89383l-158.558216 0.223998zM212.797606 50.565671c24.671722-22.143751 51.807417-41.599532 80.959089-57.887349a502.746344 502.746344 0 0 1 149.758315-49.75944 707.288043 707.288043 0 0 0-105.598812 180.669968 492.570459 492.570459 0 0 1-125.118592-73.023179z m366.171881-109.598767a446.714974 446.714974 0 0 1 246.653225 123.102615 495.034431 495.034431 0 0 1-135.486476 69.791215 706.968047 706.968047 0 0 0-111.166749-192.89383zM293.724696 775.357517a449.274946 449.274946 0 0 1-80.95909-57.919348 492.570459 492.570459 0 0 1 125.118593-72.991179 707.288043 707.288043 0 0 0 105.598812 180.669967c-52.831406-8.767901-103.358837-25.631712-149.758315-49.75944z m285.212791 51.711418a706.968047 706.968047 0 0 0 111.166749-192.893829A495.034431 495.034431 0 0 1 825.590712 703.934321a446.714974 446.714974 0 0 1-246.653225 123.102615z"  horiz-adv-x="1024" />

    
    <glyph glyph-name="_File_Pdf" unicode="&#59024;" d="M871.776 544H608V819.264L595.776 832H192v-896h704V518.72l-24.224 25.28z m-30.656 32L640 785.856V576h201.12zM192 896h431.104L960 544.448V-64a64 64 0 0 0-64-64H192a64 64 0 0 0-64 64V832a64 64 0 0 0 64 64z m513.408-718.752a158.592 158.592 0 0 0-92 37.344c-50.976-11.2-99.456-27.392-147.936-47.296C426.88 98.816 390.88 64 359.776 64c-6.208 0-13.664 1.248-18.656 4.992a36.672 36.672 0 0 0-21.12 33.6c0 11.2 2.496 42.304 120.608 93.312 27.328 49.792 48.48 100.8 65.888 154.304-14.944 29.888-47.264 103.296-24.864 140.64 7.456 13.696 22.368 21.152 38.528 19.904 12.448 0 24.864-6.208 32.32-16.16 16.16-22.4 14.912-69.696-6.208-139.392a375.296 375.296 0 0 1 77.088-99.552c26.112 4.96 52.192 8.704 78.304 8.704 58.432-1.248 67.136-28.608 65.92-44.8 0-42.304-41.056-42.304-62.176-42.304z m-348.096-77.152l3.712 1.248c17.408 6.208 31.072 18.656 41.024 34.848a98.24 98.24 0 0 1-44.736-36.096z m165.344 373.312h-3.744c-1.248 0-3.712 0-4.96-1.216-4.992-21.184-1.28-43.584 7.456-63.488a104.704 104.704 0 0 1 1.248 64.704z m8.704-180.416l-1.28-2.496-1.216 1.248c-11.2-28.64-23.616-57.28-37.312-84.64l2.496 1.28v-2.528a723.456 723.456 0 0 0 84.544 24.896l-1.248 1.248h3.744a381.248 381.248 0 0 0-49.728 60.992z m169.056-65.984c-11.2 0-21.12 0-32.32-2.464 12.448-6.24 24.864-8.736 37.312-9.952 8.704-1.28 17.408 0 24.864 2.464 0 3.744-4.992 9.952-29.856 9.952z"  horiz-adv-x="1024" />

    
    <glyph glyph-name="_Pie_Chart" unicode="&#59025;" d="M512 800C282.24 800 96 613.76 96 384s186.24-416 416-416 416 186.24 416 416H512V800z m64 59.776V448h411.776c2.784-20.928 4.224-42.304 4.224-64 0-265.088-214.912-480-480-480-265.088 0-480 214.912-480 480C32 649.088 246.912 864 512 864c21.696 0 43.072-1.44 64-4.224z m128-49.6V576h234.176A385.216 385.216 0 0 1 704 810.176zM1019.456 512H640V891.456C836.192 863.392 991.392 708.192 1019.456 512z"  horiz-adv-x="1024" />

    
    <glyph glyph-name="_Standards" unicode="&#59026;" d="M262.944 406.784l0.704 0.672 137.824-137.824-92.576 92.576-0.704-0.672 181.024-181.024 0.704 0.672 45.248-45.248-0.704-0.672 56.96-56.96c21.6 38.56 55.104 80.32 100.512 125.76 45.44 45.408 87.2 78.912 125.76 100.512L385.12 737.152a127.68 127.68 0 0 1-89.376-28.96c-17.984-14.816-36.8-32-56.352-51.584a795.744 795.744 0 0 1-51.584-56.352 127.68 127.68 0 0 1-28.96-89.376l104.096-104.096z m226.272-316.8l-189.6-189.6a32 32 0 0 0-45.248 0L28.096 126.656a32 32 0 0 0 0 45.28l189.6 189.6L173.44 405.76l-124.32 124.32a160 160 0 0 0 0 226.272l90.496 90.496a160 160 0 0 0 226.272 0l168.544-168.544L729.536 873.376a32 32 0 0 0 45.248 0l226.272-226.272a32 32 0 0 0 0-45.248l-195.04-195.072 154.56-154.56a96 96 0 0 0 27.584-57.792L994.816-96l-293.248 3.84a96 96 0 0 0-57.792 27.584l-2.176 2.176-152.384 152.384z m-45.248 45.28l-181.024 180.992-44.544-44.544 92.576-92.608-22.624-22.624-92.608 92.608L96 149.28l181.024-180.992 166.976 166.976z m135.776 497.792l180.992-181.024 172.48 172.448-181.056 181.024-81.216-81.248L763.52 631.68l-22.624-22.656-92.576 92.608-68.576-68.576z m369.024-674.528l-0.224 2.24-0.128-10.4-34.24-0.64 4.768-0.544 29.632 1.056 0.192 8.32zM354.464 767.808L320.672 801.6a96 96 0 0 1-135.776 0L94.4 711.104a96 96 0 0 1 0-135.776l33.792-33.792a159.424 159.424 0 0 0 34.88 79.04 827.392 827.392 0 0 0 53.696 58.656 827.392 827.392 0 0 0 58.656 53.664 159.424 159.424 0 0 0 79.04 34.88zM921.6 198.144a32 32 0 0 1-6.272 8.832l-73.984 73.984a46.688 46.688 0 0 1-0.576-0.288c-37.568-19.616-79.616-52.704-126.176-99.232-46.528-46.56-79.616-88.64-99.232-126.176a46.944 46.944 0 0 1-0.32-0.576l74.016-73.984a32 32 0 0 1 8.832-6.272l242.976-19.264-19.264 242.976z"  horiz-adv-x="1024" />

    
    <glyph glyph-name="_Wrench" unicode="&#59027;" d="M359.232 691.84a336.064 336.064 0 0 1-74.08-363.36 32 32 0 0 0-7.04-34.592l-179.072-179.072 158.4-158.4 179.04 179.072a32 32 0 0 0 34.592 7.04c124-49.92 267.2-22.048 363.36 74.112a336 336 0 0 1 89.28 315.584l-145.856-145.888a64 64 0 0 0-90.496 0l-158.4 158.4a64 64 0 0 0 0 90.528l145.888 145.856a336 336 0 0 1-315.616-89.28zM302.72-88.864a64 64 0 0 0-90.528 0l-158.4 158.4a64 64 0 0 0 0 90.496l164.576 164.544a400 400 0 0 0 95.68 412.48A400.064 400.064 0 0 0 746.464 825.28a32 32 0 0 0 10.688-52.32l-182.976-182.976 158.4-158.4 182.976 182.976a32 32 0 0 0 52.288-10.656c59.456-147.584 26.272-318.048-88.192-432.512a400 400 0 0 0-412.48-95.68L302.72-88.832z"  horiz-adv-x="1024" />

    
    <glyph glyph-name="_measure_specs" unicode="&#59029;" d="M704 64H320v-64a64 64 0 0 0-128 0v64H128a64 64 0 0 0 0 128h64V576H128a64 64 0 1 0 0 128h64V768a64 64 0 1 0 128 0v-64h384V768a64 64 0 0 0 128 0v-64h64a64 64 0 0 0 0-128h-64v-384h64a64 64 0 0 0 0-128h-64v-64a64 64 0 0 0-128 0v64z m0 128V576H320v-384h384zM448 512h128a64 64 0 0 0 64-64v-128a64 64 0 0 0-64-64H448a64 64 0 0 0-64 64V448a64 64 0 0 0 64 64z"  horiz-adv-x="1024" />

    
    <glyph glyph-name="_zoomin_pressed-copy" unicode="&#59785;" d="M149.96132803 746.03867197C-49.15994155 546.91740239-49.15994155 221.08259761 149.96132803 21.961328030000004s524.95607435-199.12126958 724.07734394 0 199.12126958 524.95607435 0 724.07734394S349.08259761 945.15994155 149.96132803 746.03867197z m566.59052163-200.93146294l-159.29701566-159.29701567L716.55184966 226.51317769000002c14.48154688-14.48154688 14.48154688-32.58348048 0-47.06502735s-32.58348048-14.48154688-47.06502735 0l-159.29701567 159.29701566L350.89279097 179.44815033999998c-14.48154688-14.48154688-32.58348048-14.48154688-47.06502735 0s-14.48154688 32.58348048 0 47.06502735l159.29701566 159.29701567L303.82776362 545.1072090299999c-14.48154688 14.48154688-14.48154688 32.58348048 0 47.06502735s32.58348048 14.48154688 47.06502735 0l159.29701567-159.29701566 159.29701567 159.29701566c12.67135352 12.67135352 32.58348048 14.48154688 47.06502735 0s14.48154688-32.58348048 0-47.06502735z"  horiz-adv-x="1024" />

    
    <glyph glyph-name="_update" unicode="&#58959;" d="M512-64A448 448 0 1 0 512 832a448 448 0 0 0 0-896z m0 128A320 320 0 1 1 512 704a320 320 0 0 1 0-640zM448 389.76a64 64 0 0 0-71.744 103.488l90.496 90.496a64 64 0 0 0 90.496 0l90.496-90.496A64 64 0 0 0 576 389.76V256a64 64 0 0 0-128 0V389.76z"  horiz-adv-x="1024" />

    
    <glyph glyph-name="_import" unicode="&#58882;" d="M192 0h448v128.128a64 64 0 1 0 128 0v-136.128C768-73.34400000000005 716.928-128 651.648-128H180.352C115.072-128 64-73.34400000000005 64-8V776C64 841.344 115.072 896 180.352 896h471.296C716.928 896 768 841.344 768 776v-138.24a64 64 0 0 0-128 0V768H192v-768z m581.76 448a64 64 0 0 0 103.488 71.744l90.496-90.496a63.808 63.808 0 0 0 0-90.496l-90.496-90.496A64 64 0 0 0 773.76 320H448a64 64 0 1 0 0 128h325.76z"  horiz-adv-x="1024" />

    
    <glyph glyph-name="_gift" unicode="&#58880;" d="M194.752 640A190.272 190.272 0 0 0 271.04 873.6l10.176 5.12a211.456 211.456 0 0 0 231.232-51.328 210.688 210.688 0 0 0 230.4 51.328l10.112-5.12A190.272 190.272 0 0 0 829.248 640H896a128 128 0 0 0 128-128v-128a128 128 0 0 0-65.088-111.488c0.704-5.376 1.088-10.88 1.088-16.512v-256a128 128 0 0 0-128-128H192a128 128 0 0 0-128 128v256c0 5.568 0.384 11.136 1.088 16.512A128 128 0 0 0 0 384V512a128 128 0 0 0 128 128h66.752z m153.472 0h93.312a44.48 44.48 0 0 1 4.672 12.608c1.152 5.504 1.728 11.072 1.792 15.552-0.192 16.64-4.736 32.832-15.68 51.456A82.624 82.624 0 0 1 333.696 761.6a62.272 62.272 0 0 1-13.76-85.568l0.512-0.704 3.84-6.592c1.344-2.368 2.816-4.736 4.416-7.04l1.92-11.84a59.136 59.136 0 0 1-15.552 31.168l5.376-5.76 7.808-11.072 0.448-2.496c5.504-8.064 12.096-15.36 19.52-21.696z m327.552 0c7.424 6.336 14.08 13.632 19.52 21.76l0.448 2.432 7.872 11.264 5.312 5.568a59.136 59.136 0 0 1-15.552-31.168l1.92 11.84c1.6 2.304 3.072 4.672 4.48 7.04l3.776 6.592 0.512 0.704a62.272 62.272 0 0 1-13.76 85.568c-38.4 12.096-80.512-5.632-100.992-46.336A92.8 92.8 0 0 1 576 669.312c0-5.632 0.64-11.2 1.92-16.96A43.392 43.392 0 0 1 582.4 640h93.44zM576 256v-256h256v256H576z m-128 0H192v-256h256v256z m128 256v-128h320V512H576zM448 512H128v-128h320V512z"  horiz-adv-x="1038" />

    
    <glyph glyph-name="_Shift_out" unicode="&#58890;" d="M512 768v-64h448a64 64 0 0 0 64-64v-640a64 64 0 0 0-64-64H64a64 64 0 0 0-64 64V768a64 64 0 0 0 64 64h384a64 64 0 0 0 64-64zM384 704H128v-640h768V576H384V704z m122.24-320H768a64 64 0 0 0 0-128H506.24a64 64 0 0 0-103.488-71.744L312.256 274.75199999999995a63.808 63.808 0 0 0 0 90.496l90.496 90.496A64 64 0 0 0 506.24 384z"  horiz-adv-x="1024" />

    
    <glyph glyph-name="_Create_itemSet" unicode="&#58891;" d="M832 192h64a64 64 0 0 0 0-128h-64v-64a64 64 0 0 0-128 0v64h-64a64 64 0 0 0 0 128h64v64a64 64 0 0 0 128 0v-64zM192 192h255.104a64 64 0 0 0 0-128H181.312A117.312 117.312 0 0 0 64 181.312V714.688C64 779.456 116.48 832 181.312 832h533.376C779.456 832 832 779.52 832 714.688v-265.6a64 64 0 0 0-128 0V704H192v-512z"  horiz-adv-x="1024" />

    
    <glyph glyph-name="_Dissolve" unicode="&#58892;" d="M512 896a64 64 0 0 0 64-64v-128a64 64 0 1 0-128 0V832a64 64 0 0 0 64 64z m0-768a64 64 0 0 0 64-64v-128a64 64 0 0 0-128 0v128a64 64 0 0 0 64 64z m362.048 618.048a64 64 0 0 0 0-90.496l-90.496-90.56a64 64 0 0 0-90.56 90.56l90.56 90.496a64 64 0 0 0 90.496 0z m-543.04-543.04a64 64 0 0 0 0-90.56l-90.56-90.496a64 64 0 0 0-90.496 90.496l90.496 90.56a64 64 0 0 0 90.56 0zM1024 384a64 64 0 0 0-64-64h-128a64 64 0 0 0 0 128h128a64 64 0 0 0 64-64zM256 384a64 64 0 0 0-64-64H64a64 64 0 1 0 0 128h128a64 64 0 0 0 64-64zM149.952 746.048a64 64 0 0 0 90.496 0l90.56-90.496a64 64 0 0 0-90.56-90.56L149.952 655.552a64 64 0 0 0 0 90.496z m543.04-543.04a64 64 0 0 0 90.56 0l90.496-90.56a64 64 0 1 0-90.496-90.496l-90.56 90.496a64 64 0 0 0 0 90.56z"  horiz-adv-x="1024" />

    
    <glyph glyph-name="_Move_to" unicode="&#58893;" d="M512 768v-64h448a64 64 0 0 0 64-64v-640a64 64 0 0 0-64-64H64a64 64 0 0 0-64 64V768a64 64 0 0 0 64 64h384a64 64 0 0 0 64-64zM384 704H128v-640h768V576H384V704z m197.76-320a64 64 0 0 0 103.488 71.744l90.496-90.496a63.808 63.808 0 0 0 0-90.496l-90.496-90.496A64 64 0 0 0 581.76 256H384a64 64 0 1 0 0 128h197.76z"  horiz-adv-x="1024" />

    
    <glyph glyph-name="-Correlation" unicode="&#58894;" d="M421.504 112.44799999999998A64 64 0 0 0 512 21.951999999999998 256 256 0 1 0 149.952 384l135.744 135.744a256 256 0 0 0 362.048 0 64 64 0 1 0-90.496-90.496 128 128 0 0 1-180.992 0L240.448 293.504a128 128 0 1 1 181.056-181.056z m180.992 543.104A64 64 0 1 0 512 746.048 256 256 0 1 0 874.048 384l-135.744-135.744a256 256 0 0 0-362.048 0 64 64 0 0 0 90.496 90.496 128 128 0 0 1 180.992 0l135.808 135.744a128 128 0 1 1-181.056 181.056z"  horiz-adv-x="1024" />

    
    </font>
</defs>
</svg>
