<?xml version="1.0" encoding="UTF-8"?>
<svg width="2590px" height="1295px" viewBox="0 0 2590 1295" version="1.1" xmlns="http://www.w3.org/2000/svg" xmlns:xlink="http://www.w3.org/1999/xlink">
    <!-- Generator: Sketch 52 (66869) - http://www.bohemiancoding.com/sketch -->
    <title>iPhone X-2</title>
    <desc>Created with Sketch.</desc>
    <defs>
        <rect id="path-1" x="0" y="0" width="156" height="21" rx="10.5"></rect>
        <radialGradient cx="50%" cy="0%" fx="50%" fy="0%" r="100%" id="radialGradient-3">
            <stop stop-color="#2A4893" offset="0%"></stop>
            <stop stop-color="#213054" offset="100%"></stop>
        </radialGradient>
        <circle id="path-4" cx="19" cy="19" r="10"></circle>
        <filter x="-75.0%" y="-75.0%" width="250.0%" height="250.0%" filterUnits="objectBoundingBox" id="filter-6">
            <feMorphology radius="2.5" operator="dilate" in="SourceAlpha" result="shadowSpreadOuter1"></feMorphology>
            <feOffset dx="0" dy="0" in="shadowSpreadOuter1" result="shadowOffsetOuter1"></feOffset>
            <feGaussianBlur stdDeviation="2.5" in="shadowOffsetOuter1" result="shadowBlurOuter1"></feGaussianBlur>
            <feColorMatrix values="0 0 0 0 0   0 0 0 0 0   0 0 0 0 0  0 0 0 0.4 0" type="matrix" in="shadowBlurOuter1" result="shadowMatrixOuter1"></feColorMatrix>
            <feMorphology radius="1" operator="dilate" in="SourceAlpha" result="shadowSpreadOuter2"></feMorphology>
            <feOffset dx="0" dy="0" in="shadowSpreadOuter2" result="shadowOffsetOuter2"></feOffset>
            <feColorMatrix values="0 0 0 0 0   0 0 0 0 0   0 0 0 0 0  0 0 0 1 0" type="matrix" in="shadowOffsetOuter2" result="shadowMatrixOuter2"></feColorMatrix>
            <feMerge>
                <feMergeNode in="shadowMatrixOuter1"></feMergeNode>
                <feMergeNode in="shadowMatrixOuter2"></feMergeNode>
            </feMerge>
        </filter>
    </defs>
    <g id="Page-1" stroke="none" stroke-width="1" fill="none" fill-rule="evenodd">
        <g id="iPhone-X-2" transform="translate(1295.000000, 647.500000) rotate(-90.000000) translate(-1295.000000, -647.500000) translate(647.500000, -647.500000)">
            <g id="Body" fill="#1E1E1E">
                <g id="Phone-Shape" transform="translate(8.000000, 0.000000)">
                    <path d="M227,0 L1052,0 C1210.59096,0 1279,78.4090433 1279,227 L1279,2363 C1279,2506.59096 1205.59096,2590 1052,2590 L227,2590 C68.4090433,2590 0,2511.59096 0,2363 L0,227 C0,78.4090433 68.4090433,0 227,0 Z M953,103 L953,104 C953,131.793939 931.793939,167 883,167 L397,167 C348.206061,167 327,131.793939 327,104 L327,102.999994 C327,90.1450152 326.999996,77 304.000025,77 L207,77 C125.934969,77 77,125.934969 77,207 L77,2383 C77,2464.06503 125.934969,2513 207,2513 L1072,2513 C1153.06503,2513 1202,2464.06503 1202,2383 L1202,207 C1202,125.934969 1153.06503,77 1072,77 L976,77 C953,77 953,90.1450195 953,103 Z" id="Combined-Shape"></path>
                </g>
                <g id="Buttons" transform="translate(0.000000, 353.000000)">
                    <path d="M6.98099398,0 C3.12549747,0 0,3.13400675 0,7 L0,93 C0,96.8659932 3.12549747,100 6.98099398,100 L10.9701334,100 C10.9701334,94.7402344 11.0373333,5.14160156 10.9701334,0 L6.98099398,0 Z" id="Mute"></path>
                    <path d="M6.98099398,183 C4.7112355,183.55883 1.98945725,184.98988 0.536131425,187.022595 C0.23678211,187.441284 0,188.765951 0,189.148926 C0,208.368873 0,266.909726 0,364.771484 C0,365.180303 0.333278995,367.245605 0.537344187,367.74646 C1.71341602,370.632999 3.75686165,371.331299 6.98099398,373 L10.9701334,373 C10.9701334,367.740234 11.0373333,188.141602 10.9701334,183 L6.98099398,183 Z" id="Volume"></path>
                    <path d="M6.98099398,420 C4.7112355,420.55883 1.98945725,421.98988 0.536131425,424.022595 C0.23678211,424.441284 0,425.765951 0,426.148926 C0,445.368873 0,503.909726 0,601.771484 C0,602.180303 0.333278995,604.245605 0.537344187,604.74646 C1.71341602,607.632999 3.75686165,608.331299 6.98099398,610 L10.9701334,610 C10.9701334,604.740234 11.0373333,425.141602 10.9701334,420 L6.98099398,420 Z" id="Volume"></path>
                    <path d="M1290.98099,245 C1288.71124,245.55883 1285.98946,246.98988 1284.53613,249.022595 C1284.23678,249.441284 1284,250.765951 1284,251.148926 C1284,270.368873 1284,440.909726 1284,538.771484 C1284,539.180303 1284.33328,541.245605 1284.53734,541.74646 C1285.71342,544.632999 1287.75686,545.331299 1290.98099,547 L1294.97013,547 C1294.97013,541.740234 1295.03733,250.141602 1294.97013,245 L1290.98099,245 Z" id="Siri" transform="translate(1289.500000, 396.000000) scale(-1, 1) translate(-1289.500000, -396.000000) "></path>
                </g>
            </g>
            <g id="Front" transform="translate(531.000000, 94.000000)">
                <g id="Speaker" opacity="0.801364272" transform="translate(0.000000, 9.000000)">
                    <mask id="mask-2" fill="white">
                        <use xlink:href="#path-1"></use>
                    </mask>
                    <use id="Mask" fill="#1D1C1C" xlink:href="#path-1"></use>
                </g>
                <g id="Camera" transform="translate(196.000000, 0.000000)">
                    <circle id="Oval-" fill="#323234" cx="19" cy="19" r="19"></circle>
                    <mask id="mask-5" fill="white">
                        <use xlink:href="#path-4"></use>
                    </mask>
                    <g id="Mask" opacity="0.387534981">
                        <use fill="black" fill-opacity="1" filter="url(#filter-6)" xlink:href="#path-4"></use>
                        <use fill="url(#radialGradient-3)" fill-rule="evenodd" xlink:href="#path-4"></use>
                    </g>
                </g>
            </g>
        </g>
    </g>
</svg>