<?xml version="1.0" encoding="UTF-8"?>
<svg width="2458px" height="1204px" viewBox="0 0 2458 1204" version="1.1" xmlns="http://www.w3.org/2000/svg" xmlns:xlink="http://www.w3.org/1999/xlink">
    <!-- Generator: Sketch 52 (66869) - http://www.bohemiancoding.com/sketch -->
    <title>Google Pixel-2</title>
    <desc>Created with Sketch.</desc>
    <g id="Page-1" stroke="none" stroke-width="1" fill="none" fill-rule="evenodd">
        <g id="Google-Pixel-2" transform="translate(1229.000000, 602.000000) rotate(-90.000000) translate(-1229.000000, -602.000000) translate(627.000000, -627.000000)">
            <g id="Body">
                <g id="Combined-Shape">
                    <path d="M172.586,2458 C128.256,2458 84.665,2439.833 52.989,2408.157 C18.818,2373.986 0,2325.924 0,2272.823 L0,197.761 C0,137.184 14.687,89.552 43.655,56.191 C76.029,18.905 125.342,0 190.222,0 L1013.777,0 C1078.657,0 1127.97,18.905 1160.344,56.191 C1189.312,89.552 1204,137.184 1204,197.761 L1204,2272.823 C1204,2325.924 1185.181,2373.986 1151.01,2408.157 C1119.335,2439.833 1075.743,2458 1031.413,2458 L172.586,2458 Z M62,252 L62,2172 L1142,2172 L1142,252 L62,252 Z" fill=""></path>
                    <path d="M172.586,2458 C128.256,2458 84.665,2439.833 52.989,2408.157 C18.818,2373.986 0,2325.924 0,2272.823 L0,197.761 C0,137.184 14.687,89.552 43.655,56.191 C76.029,18.905 125.342,0 190.222,0 L1013.777,0 C1078.657,0 1127.97,18.905 1160.344,56.191 C1189.312,89.552 1204,137.184 1204,197.761 L1204,2272.823 C1204,2325.924 1185.181,2373.986 1151.01,2408.157 C1119.335,2439.833 1075.743,2458 1031.413,2458 L172.586,2458 Z M62,252 L62,2172 L1142,2172 L1142,252 L62,252 Z" fill="#E9EAEC"></path>
                </g>
            </g>
            <g id="Front" transform="translate(24.000000, 22.000000)">
                <g id="Phone">
                    <path d="M166.222222,0 L989.777778,0 C1110.66667,0 1156,69.8824451 1156,173.761755 L1156,2248.82464 C1156,2349.55735 1082.968,2410 1007.41244,2410 L148.587556,2410 C73.032,2410 0,2349.55735 0,2248.82464 L0,173.761755 C0,69.8824451 45.3333333,0 166.222222,0 Z M38,230 L38,2150 L1118,2150 L1118,230 L38,230 Z" id="Combined-Shape" fill="#FAFBFD"></path>
                    <path d="M34,226 L1122,226 L1122,2154 L34,2154 L34,226 Z M38,230 L38,2150 L1118,2150 L1118,230 L38,230 Z" id="Combined-Shape" fill="#000000"></path>
                </g>
                <g id="Sensors" transform="translate(160.000000, 52.000000)">
                    <g id="Camera">
                        <circle id="Outer" stroke="#FFFFFF" stroke-width="2" fill="#4D5054" cx="24" cy="24" r="25"></circle>
                        <circle id="Lens" fill="#141416" cx="24" cy="24" r="13"></circle>
                    </g>
                    <rect id="Speaker" stroke="#E5E5E5" stroke-width="3" fill="#525152" x="297.5" y="12.5" width="241" height="21" rx="10.5"></rect>
                </g>
            </g>
        </g>
    </g>
</svg>